<?xml version="1.0" encoding="UTF-8"?>
<svg width="80px" height="80px" viewBox="0 0 80 80" version="1.1" xmlns="http://www.w3.org/2000/svg" xmlns:xlink="http://www.w3.org/1999/xlink">
    <title>Picto/Etat/Inactif</title>
    <g id="Picto/Etat/Inactif" stroke="none" stroke-width="1" fill="none" fill-rule="evenodd">
        <g id="Etat" transform="translate(10.000000, 4.000000)">
            <path d="M14.1639344,34.4 L14.1639344,62.4 L7.86885246,62.4 L7.86885246,34.4 L14.1639344,34.4 Z M26.7540984,34.4 L26.7540984,62.4 L20.4590164,62.4 L20.4590164,34.4 L26.7540984,34.4 Z M39.3442623,34.4 L39.3442623,62.4 L33.0491803,62.4 L33.0491803,34.4 L39.3442623,34.4 Z M51.9344262,34.4 L51.9344262,62.4 L45.6393443,62.4 L45.6393443,34.4 L51.9344262,34.4 Z" id="Combined-Shape" fill="#E2F2EB"></path>
            <path d="M58.0590164,66.4 C58.5008442,66.4 58.8590164,66.7581722 58.8590164,67.2 L58.8590164,70.72 C58.8590164,71.1618278 58.5008442,71.52 58.0590164,71.52 L1.7442623,71.52 C1.3024345,71.52 0.944262295,71.1618278 0.944262295,70.72 L0.944262295,67.2 C0.944262295,66.7581722 1.3024345,66.4 1.7442623,66.4 L58.0590164,66.4 Z M31.1606557,0.693333336 L31.1606557,12.7552 L58.2379017,28.7808 C58.8825942,29.1632697 59.2786887,29.8651316 59.2786887,30.624 L59.2786887,30.624 L59.2786887,32.6933333 C59.2786887,33.8715408 58.3392205,34.8266666 57.1803279,34.8266666 L57.1803279,34.8266666 L53.6125902,34.8263333 L53.6131147,36.5333334 C53.6757831,37.4757665 53.2845976,38.3904888 52.5639344,38.9866666 L52.3918688,39.1530666 C52.1688431,39.3798095 52.1369823,39.4122014 52.1324307,39.8897197 L52.1316722,40.1685334 L52.1316722,40.1685334 L52.1442623,61.28 L49.6262295,61.28 L49.6262295,40.16 C49.6262295,39.2298666 49.6262295,38.3509334 50.6250492,37.3354666 C50.7047869,37.2501334 50.7845246,37.1776 50.8600656,37.1050666 L50.9627318,37.0089107 L50.9627318,37.0089107 L51.0573114,36.9045334 C51.0910876,36.7839842 51.1038702,36.658359 51.0950819,36.5333334 L51.0945902,34.8263333 L46.2685902,34.8263333 L46.2688525,36.5333334 C46.2600642,36.658359 46.2728468,36.7839842 46.306623,36.9045334 C46.36687,36.9767463 46.4328397,37.0438154 46.5038689,37.1050666 C46.5794099,37.1776 46.6591475,37.2501334 46.7388852,37.3354666 C47.6201967,38.2314667 47.7238804,39.0211691 47.7360785,39.8335379 L47.7377049,40.16 L47.7377049,40.16 L47.7377049,61.28 L45.2196722,61.28 L45.2196722,40.16 C45.2196722,39.4090666 45.2196722,39.4090666 44.9594754,39.1445334 L44.7874098,38.9781334 C44.073955,38.3811014 43.6879074,37.4706074 43.7508197,36.5333334 L43.7505902,34.8263333 L41.0225902,34.8263333 L41.0229508,36.5333334 C41.0856192,37.4757665 40.6944337,38.3904888 39.9737705,38.9866666 L39.8017049,39.1530666 C39.5415082,39.4176 39.5415082,39.4176 39.5415082,40.1685334 L39.5540984,61.28 L37.0360656,61.28 L37.0360656,40.16 C37.0360656,39.2298666 37.0360656,38.3509334 38.0348852,37.3354666 C38.1146229,37.2501334 38.1943607,37.1776 38.2699017,37.1050666 L38.3725679,37.0089107 L38.3725679,37.0089107 L38.4671475,36.9045334 C38.5009236,36.7839842 38.5137063,36.658359 38.504918,36.5333334 L38.5045902,34.8263333 L33.6785902,34.8263333 L33.6786885,36.5333334 C33.6699003,36.658359 33.6826829,36.7839842 33.716459,36.9045334 C33.7767061,36.9767463 33.8426757,37.0438154 33.9137049,37.1050666 C33.9892459,37.1776 34.0689836,37.2501334 34.1487213,37.3354666 C35.0887869,38.2912 35.1440849,39.1259903 35.1473377,39.9963521 L35.147541,61.28 L32.6295082,61.28 L32.6287496,39.8811864 C32.6241981,39.403668 32.5923373,39.3712762 32.3693115,39.1445334 L32.1972459,38.9781334 C31.483791,38.3811014 31.0977435,37.4706074 31.1606557,36.5333334 L31.1605902,34.8263333 L28.4325902,34.8263333 L28.4327869,36.5333334 C28.4954553,37.4757665 28.1042697,38.3904888 27.3836066,38.9866666 L27.211541,39.1530666 C26.9816206,39.3947429 26.9651978,39.4120055 26.9640247,40.0110616 L26.9639345,61.28 L24.4459017,61.28 L24.4459017,40.16 C24.4459017,39.2298666 24.4459017,38.3509334 25.4447213,37.3354666 C25.524459,37.2501334 25.6041967,37.1776 25.6797377,37.1050666 L25.7824039,37.0089107 L25.7824039,37.0089107 L25.8769836,36.9045334 C25.9107597,36.7839842 25.9235423,36.658359 25.9147541,36.5333334 L25.9145902,34.8263333 L21.0875902,34.8263333 L21.0885246,36.5333334 C21.0797363,36.658359 21.092519,36.7839842 21.1262951,36.9045334 C21.1865422,36.9767463 21.2525118,37.0438154 21.323541,37.1050666 C21.399082,37.1776 21.4788197,37.2501334 21.5585574,37.3354666 C22.498623,38.2912 22.553921,39.1259903 22.5571738,39.9963521 L22.5573771,61.28 L20.0393443,61.28 L20.0393443,40.16 C20.0393443,39.4090666 20.0393443,39.4090666 19.7791475,39.1445334 L19.6070819,38.9781334 C18.8936271,38.3811014 18.5075795,37.4706074 18.5704918,36.5333334 L18.5695902,34.8263333 L15.8425902,34.8263333 L15.8426229,36.5333334 C15.9052913,37.4757665 15.5141058,38.3904888 14.7934426,38.9866666 L14.621377,39.1530666 C14.4091429,39.3761524 14.3788237,39.4080218 14.3744924,39.8827786 L14.3737705,61.28 L11.8557377,61.28 L11.8557377,40.16 C11.8557377,39.2298666 11.8557377,38.3509334 12.8545574,37.3354666 C12.9342951,37.2501334 13.0140328,37.1776 13.0895738,37.1050666 L13.19224,37.0089107 L13.19224,37.0089107 L13.2868196,36.9045334 C13.3205958,36.7839842 13.3333784,36.658359 13.3245901,36.5333334 L13.3235902,34.8263333 L8.49759019,34.8263333 L8.49836066,36.5333334 C8.48957241,36.658359 8.50235504,36.7839842 8.53613115,36.9045334 C8.59637823,36.9767463 8.66234786,37.0438154 8.73337708,37.1050666 C8.80891806,37.1776 8.88865574,37.2501334 8.96839342,37.3354666 C9.90845904,38.2912 9.96375702,39.1259903 9.96700984,39.9963521 L9.96721314,61.28 L7.44918035,61.28 L7.44918035,40.16 C7.44918035,39.4090666 7.44918035,39.4090666 7.18898361,39.1445334 L7.01691801,38.9781334 C6.30346316,38.3811014 5.91741561,37.4706074 5.98032787,36.5333334 L5.97959019,34.8263333 L2.62295079,34.8266666 C2.12826654,34.8266666 1.65159199,34.6490775 1.27539059,34.328626 L1.13918581,34.2018278 C0.74566678,33.8017502 0.52459019,33.2591285 0.52459019,32.6933333 L0.52459019,32.6933333 L0.52459019,30.624 C0.525238662,29.8642556 0.92326678,29.1621915 1.5695738,28.7808 L1.5695738,28.7808 L28.642623,12.7594666 L28.642623,1.97333334 C28.642623,1.26640886 29.2063038,0.693333336 29.9016393,0.693333336 L29.9016393,0.693333336 L31.1606557,0.693333336 Z" id="Combined-Shape" fill="#6A6A6A" fill-rule="nonzero"></path>
            <polygon id="Shape-path" fill="#E2F2EB" points="56.7606557 32.2666666 3.04262298 32.2666666 3.04262298 30.88 29.9016393 14.9824 56.7606557 30.88"></polygon>
            <path d="M54.2819672,61.28 C54.723795,61.28 55.0819672,61.6381722 55.0819672,62.08 L55.0819672,65.6 C55.0819672,66.0418278 54.723795,66.4 54.2819672,66.4 L5.52131148,66.4 C5.07948368,66.4 4.72131148,66.0418278 4.72131148,65.6 L4.72131148,62.08 C4.72131148,61.6381722 5.07948368,61.28 5.52131148,61.28 L54.2819672,61.28 Z M39.9737705,0.72 C40.669106,0.72 41.2327869,1.29307552 41.2327869,2 L41.2327869,2 L41.2327869,3.70666666 L44.7202623,3.70666666 C44.8666789,3.70854598 45.0015454,3.78787613 45.0761244,3.91598909 C45.1507034,4.04410204 45.15421,4.20247156 45.085377,4.33386666 L45.085377,4.33386666 L43.444459,7.34186664 C43.3694918,7.47387776 43.3694918,7.63652224 43.444459,7.76853336 L43.444459,7.76853336 L45.085377,10.7594666 C45.15421,10.8908618 45.1507034,11.0492313 45.0761244,11.1773442 C45.0015454,11.3054572 44.8666789,11.3847874 44.7202623,11.3866666 L44.7202623,11.3866666 L36.6163934,11.3866666 C35.9210579,11.3866666 35.357377,10.8135911 35.357377,10.1066666 L35.357377,10.1066666 L35.357377,8.4 L31.1606557,8.4 L31.1606557,0.72 Z" id="Combined-Shape" fill="#C5E6D8" fill-rule="nonzero"></path>
        </g>
    </g>
</svg>