<?xml version="1.0" encoding="UTF-8"?>
<svg viewBox="0 0 20 21" version="1.1" xmlns="http://www.w3.org/2000/svg" xmlns:xlink="http://www.w3.org/1999/xlink">
    <g id="Desktop" stroke="none" stroke-width="1" fill="none" fill-rule="evenodd">
        <g id="Screen6" transform="translate(-1107.000000, -232.000000)" fill="#383838" fill-rule="nonzero">
            <g id="Header" transform="translate(0.000000, 10.000000)">
                <g id="Group-5" transform="translate(0.000000, 203.000000)">
                    <path d="M1127,29.5608519 C1127,24.0030426 1122.52419,19.5 1117,19.5 C1111.47581,19.5 1107,24.0030426 1107,29.5608519 C1107,34.5823529 1110.65685,38.7446247 1115.4375,39.5 L1115.4375,32.4691684 L1112.89718,32.4691684 L1112.89718,29.5608519 L1115.4375,29.5608519 L1115.4375,27.3442191 C1115.4375,24.8229209 1116.92944,23.4302231 1119.21452,23.4302231 C1120.30887,23.4302231 1121.45323,23.626572 1121.45323,23.626572 L1121.45323,26.101217 L1120.19194,26.101217 C1118.95,26.101217 1118.5625,26.8768763 1118.5625,27.6724138 L1118.5625,29.5608519 L1121.33589,29.5608519 L1120.89234,32.4691684 L1118.5625,32.4691684 L1118.5625,39.5 C1123.34315,38.7446247 1127,34.5823529 1127,29.5608519 Z" id="facebook"></path>
                </g>
            </g>
        </g>
    </g>
</svg>
