<?xml version="1.0" encoding="UTF-8"?>
<svg viewBox="0 0 20 21" version="1.1" xmlns="http://www.w3.org/2000/svg" xmlns:xlink="http://www.w3.org/1999/xlink">
    <g id="Desktop" stroke="none" stroke-width="1" fill="none" fill-rule="evenodd">
        <g id="Screen6" transform="translate(-1187.000000, -232.000000)" fill="#383838" fill-rule="nonzero">
            <g id="Header" transform="translate(0.000000, 10.000000)">
                <g id="Group-5" transform="translate(0.000000, 203.000000)">
                    <path d="M1197,24.5 C1194.23238,24.5 1192,26.732376 1192,29.5 C1192,32.267624 1194.23238,34.5 1197,34.5 C1199.76762,34.5 1202,32.267624 1202,29.5 C1202,26.732376 1199.76762,24.5 1197,24.5 Z M1197,19.5146357 C1198.77204,19.5146357 1202.58245,19.3733077 1204.18055,20.0038479 C1205.24594,20.4278318 1206.06673,21.2486211 1206.49615,22.3194522 C1207.13213,23.9229811 1206.98536,27.7279647 1206.98536,29.5 C1206.98536,31.2720353 1207.13213,35.0824546 1206.49615,36.6805478 C1206.07217,37.7459432 1205.25138,38.5667325 1204.18055,38.9961521 C1202.57702,39.6321279 1198.77204,39.4853643 1197,39.4853643 C1195.22796,39.4853643 1191.41755,39.6266923 1189.81945,38.9961521 C1188.75406,38.5721682 1187.93327,37.7513789 1187.50385,36.6805478 C1186.86787,35.0770189 1187.01464,31.2720353 1187.01464,29.5 C1187.01464,27.7279647 1186.87331,23.9175454 1187.50385,22.3194522 C1187.92783,21.2540568 1188.74862,20.4332675 1189.81945,20.0038479 C1191.42298,19.3678721 1195.22796,19.5146357 1197,19.5146357 Z M1197,26.5 C1195.34538,26.5 1194,27.8453815 1194,29.5 C1194,31.1546185 1195.3494,32.5 1197,32.5 C1198.6506,32.5 1200,31.1546185 1200,29.5 C1200,27.8453815 1198.65462,26.5 1197,26.5 Z M1202.25,23 C1201.5597,23 1201,23.5597015 1201,24.25 C1201,24.9402985 1201.55504,25.5 1202.25,25.5 C1202.9403,25.5 1203.5,24.9449627 1203.5,24.25 C1203.5,23.5597015 1202.9403,23 1202.25,23 Z" id="instagram"></path>
                </g>
            </g>
        </g>
    </g>
</svg>
