<?xml version="1.0" encoding="UTF-8"?>
<svg viewBox="0 0 20 20" version="1.1" xmlns="http://www.w3.org/2000/svg" xmlns:xlink="http://www.w3.org/1999/xlink">
    <g id="Desktop" stroke="none" stroke-width="1" fill="none" fill-rule="evenodd">
        <g id="Screen6" transform="translate(-1147.000000, -233.000000)">
            <g id="Header" transform="translate(0.000000, 10.000000)">
                <g id="Group-5" transform="translate(0.000000, 203.000000)">
                    <path d="M1164.94421,25.9874855 C1164.95691,26.1624771 1164.95691,26.3375072 1164.95691,26.5124989 C1164.95691,31.8499749 1160.83255,38 1153.29444,38 C1150.97209,38 1148.81473,37.3374712 1147,36.1875206 C1147.32996,36.2249968 1147.64719,36.2375017 1147.98985,36.2375017 C1149.90607,36.2375017 1151.67006,35.6000212 1153.0787,34.5125181 C1151.27666,34.4750034 1149.7665,33.3125095 1149.24618,31.7124979 C1149.5,31.7499741 1149.7538,31.7749839 1150.02032,31.7749839 C1150.38833,31.7749839 1150.75638,31.7249643 1151.099,31.637507 C1149.22083,31.2624754 1147.81215,29.6374926 1147.81215,27.6749928 L1147.81215,27.6250117 C1148.35782,27.9250139 1148.99239,28.1125104 1149.66493,28.1374818 C1148.56087,27.4124669 1147.83754,26.174982 1147.83754,24.7749719 C1147.83754,24.0249858 1148.04055,23.3374856 1148.3959,22.7374813 C1150.41369,25.1874797 1153.4467,26.7874528 1156.84769,26.9624829 C1156.78426,26.6624807 1156.74617,26.3500121 1156.74617,26.0375051 C1156.74617,23.8124794 1158.5736,22 1160.84517,22 C1162.02537,22 1163.09135,22.4874987 1163.8401,23.2749996 C1164.76648,23.1000079 1165.6548,22.7624911 1166.44164,22.3000022 C1166.13703,23.2375234 1165.48984,24.0250242 1164.6396,24.5249894 C1165.46449,24.437532 1166.26398,24.2124823 1167,23.9000137 C1166.44172,24.699981 1165.74371,25.4124525 1164.94421,25.9874855 Z" id="twitter" fill="#383838" fill-rule="nonzero"></path>
                </g>
            </g>
        </g>
    </g>
</svg>
