<?xml version="1.0" encoding="UTF-8"?>
<svg width="80px" height="80px" viewBox="0 0 80 80" version="1.1" xmlns="http://www.w3.org/2000/svg" xmlns:xlink="http://www.w3.org/1999/xlink">
    <title>Picto/2023/Actif</title>
    <g id="Picto/2023/Actif" stroke="none" stroke-width="1" fill="none" fill-rule="evenodd">
        <g id="2023">
            <circle id="Oval" fill="#F9F8F6" cx="40" cy="40" r="40"></circle>
            <path d="M27.01,40 L27.01,37.56 L20.63,37.56 L24.01,34.3 C25.39,32.96 26.65,31.48 26.65,29.56 C26.65,27.16 24.69,25.6 22.25,25.6 C19.81,25.6 18.07,26.8 16.89,28.72 L19.09,30.06 C19.83,28.82 20.65,28 21.99,28 C23.09,28 23.89,28.68 23.89,29.84 C23.89,30.98 23.21,31.74 22.13,32.84 L17.33,37.56 L17.33,40 L27.01,40 Z M34.17,40.4 C37.85,40.4 39.57,37.2 39.57,33 C39.57,28.8 37.85,25.6 34.17,25.6 C30.49,25.6 28.77,28.8 28.77,33 C28.77,37.2 30.49,40.4 34.17,40.4 Z M34.17,37.9 C32.39,37.9 31.53,35.96 31.53,33 C31.53,30.06 32.39,28.1 34.17,28.1 C35.93,28.1 36.79,30.04 36.79,33 C36.79,35.94 35.93,37.9 34.17,37.9 Z M50.97,40 L50.97,37.56 L44.59,37.56 L47.97,34.3 C49.35,32.96 50.61,31.48 50.61,29.56 C50.61,27.16 48.65,25.6 46.21,25.6 C43.77,25.6 42.03,26.8 40.85,28.72 L43.05,30.06 C43.79,28.82 44.61,28 45.95,28 C47.05,28 47.85,28.68 47.85,29.84 C47.85,30.98 47.17,31.74 46.09,32.84 L41.29,37.56 L41.29,40 L50.97,40 Z M57.75,40.4 C60.67,40.4 62.85,38.66 62.85,36 C62.85,34.46 62.07,33.2 60.65,32.48 C61.69,31.76 62.25,30.66 62.25,29.36 C62.25,27.06 60.35,25.6 57.79,25.6 C55.53,25.6 53.95,26.58 52.93,28.24 L55.13,29.6 C55.71,28.6 56.47,28 57.59,28 C58.69,28 59.49,28.6 59.49,29.66 C59.49,30.74 58.63,31.4 57.45,31.4 L55.33,31.4 L55.33,33.8 L57.63,33.8 C59.11,33.8 60.11,34.6 60.11,35.88 C60.11,37.18 59.09,38 57.73,38 C56.35,38 55.41,37.32 54.63,35.78 L52.27,37.24 C53.41,39.24 55.11,40.4 57.75,40.4 Z M40.94,61.04 L47.2,54.78 L40.96,48.56 L39.42,50.08 L43.04,53.7 L32.8,53.7 L32.8,55.88 L43.06,55.88 L39.42,59.52 L40.94,61.04 Z" id="2023→" fill="#107449" fill-rule="nonzero"></path>
        </g>
    </g>
</svg>