<?xml version="1.0" encoding="UTF-8"?>
<svg width="80px" height="80px" viewBox="0 0 80 80" version="1.1" xmlns="http://www.w3.org/2000/svg" xmlns:xlink="http://www.w3.org/1999/xlink">
    <title>Picto/Collectivite/Actif</title>
    <g id="Picto/Collectivite/Actif" stroke="none" stroke-width="1" fill="none" fill-rule="evenodd">
        <g id="Collectivites" transform="translate(4.000000, 0.000000)">
            <polygon id="Path" fill="#C5E6D8" fill-rule="nonzero" points="59.9025813 12.4843049 59.3062984 12.9506727 58.936603 12.9626308 58.2449148 12.651719 57.7678885 12.2571002 56.8496128 12.2571002 56.6826536 12.6278027 55.9313371 12.7234678 55.4662364 11.754858 55.0488384 11.7907324 55.0488384 11.3721973 54.2378937 11.1689088 53.3315436 10.367713 52.5443309 10.3916293 52.6635875 9.51868458 52.2820857 8.75336325 52.2820857 8.20328849 52.6398554 7.50971599 52.2820857 7.3064275 51.7215797 7.88041853 51.4949922 8.74140508 50.3262777 9.2675635 49.6107382 9.04035875 49.2291172 9.12406575 49.3364481 9.88938717 49.1575632 10.3557548 49.3364481 10.77429 48.668492 11.7428998 48.2987966 11.7787742 48.3345736 13.7040358 48.215317 14.0747384 47.4878518 13.8236173 46.4264682 14.3617339 46.2596282 14.7204783 46.688952 15.8086697 45.9614868 16.1076233 46.1761487 16.4304932 46.0568921 16.8011958 46.3908105 16.9686098 45.3771296 18.3318386 45.3055757 18.6068759 44.9715379 18.9058296 45.4366386 20.0179372 45.7824827 20.245142 45.3770103 20.9147982 44.9834636 21.0104634 45.0430919 22.1584454 45.5320439 22.3617339 46.1283268 23.103139 46.4622452 24.2152467 46.7246097 23.916293 47.2136809 24.4783258 47.8815178 25.9491779 49.5630356 25.7339312 49.9567016 25.9133034 50.2548431 25.6502242 51.0775942 25.5306427 51.7096541 25.0044843 52.2225767 25.0762332 52.2225767 25.064275 52.6875581 25.1599402 52.7592312 25.5306427 53.117001 25.6621823 53.0692984 26.0448431 53.4628451 26.0807175 53.7013582 26.3916293 53.8326597 26.7982062 53.4628451 27.1210762 53.7730315 27.7668162 55.0013742 28.0418535 55.4067274 28.245142 55.4067274 28.6278027 56.0507129 28.3766816 56.2057465 28.0418535 57.0882452 27.5156951 57.3863867 27.754858 57.7917398 27.6233184 57.8394424 26.4992526 58.1137326 26.1763827 58.4953537 26.2242152 58.8054207 25.793722 58.7696437 25.6023917 59.8549979 24.8251121 60.7970057 25.3991032 61.5483222 25.1838565 62.2042333 25.6741405 62.8960407 25.3751868 64.0169334 26.2600897 64.1482349 26.1763827 65.1619158 26.8460388 65.2215442 28.0657698 65.6030459 28.0418535 65.8774553 28.7473842 66.2352251 28.819133 66.1278942 29.22571 67.1415751 29.22571 67.4993448 29.0941704 67.5708988 28.6875934 67.9525199 28.6636772 67.9763712 28.245142 68.2745127 27.9820627 67.8928916 26.941704 68.2506613 24.8729447 67.9882968 23.4857997 68.7873159 21.6083707 68.9900522 19.5037369 70.3853542 17.6741405 70.9099638 16.2391629 69.7770263 15.8325859 67.7973671 15.7608371 66.6763552 14.7563528 65.8415591 15.3183857 64.9113577 15.1509716 64.5656329 15.3183857 64.2674915 14.7922272 63.8620191 14.6008968 63.4923237 14.8161435 63.4564275 15.2107623 63.0867321 15.1150972 62.0134228 13.8834081 61.7868353 13.1061286 61.3814822 12.8310912"></polygon>
            <polygon id="Path" fill="#E2F2EB" fill-rule="nonzero" points="39.9032524 0 37.720857 0.550074738 35.8843057 1.12406577 35.1091378 1.79372197 35.1091378 4.20926757 35.5026846 4.67563527 35.1329892 4.44843049 35.0375839 5.23766816 35.0972122 5.75186846 35.4072793 5.9671151 34.9064017 6.15844544 34.858699 6.56502242 35.2641714 7.3064275 34.894476 7.10313902 34.0239029 8.29895366 34.0239029 8.29895366 35.7054207 9.73393125 36.1585957 10.8699552 35.7531234 11.4917787 35.9439339 12.6756352 35.7531234 13.7518685 36.2301497 14.8759342 35.6934951 15.2227205 35.9081569 15.6532137 36.6594734 15.8086697 37.5061952 15.5575486 38.7345379 15.8565022 39.0326794 15.6412556 40.4876097 16.490284 41.4058854 16.6337817 41.6801755 16.3348281 42.014094 16.5500747 43.0994481 16.1554559 43.4572178 16.2511211 43.6836861 16.5859492 43.6002065 16.9686098 44.1249355 17.5306427 45.3771296 18.3318386 46.3908105 16.9686098 46.0568921 16.8011958 46.1761487 16.4304932 45.9614868 16.1076233 46.688952 15.8086697 46.2596282 14.7204783 46.4264682 14.3617339 47.4878518 13.8236173 48.215317 14.0747384 48.3345736 13.7040358 48.2989158 11.7787742 48.6686112 11.7428998 49.3365673 10.77429 49.1576825 10.3557548 49.3365673 9.88938717 49.2292364 9.12406575 49.1814146 9.12406575 48.6924626 8.96860983 49.1337119 8.11958147 48.7282396 7.41405082 49.0026489 6.54110612 48.6328342 6.62481315 48.084254 5.9671151 47.2733092 6.11061286 46.5457248 5.94319881 46.2475834 6.20627802 45.9614868 4.98654708 45.2339024 4.80717489 45.0788688 4.44843049 44.6972478 4.73542601 44.2679241 4.59192825 43.8624517 3.45590433 43.92208 3.04932736 43.3974703 2.46337817 42.6102576 2.52316891 41.8708668 3.03736921 41.4773201 2.86995516 41.095699 2.16442452 40.6545689 2.16442452 40.4756841 1.80568012 40.6186727 1.04035874 40.2729478 0.227204783"></polygon>
            <polygon id="Path" fill="#FFFFFF" fill-rule="nonzero" points="39.0326794 15.6412556 38.7345379 15.8565022 37.5061952 15.5575486 36.6594734 15.8086697 35.9081569 15.6532137 35.6934951 15.2227205 35.1687662 16.490284 34.6559628 16.490284 34.3339701 16.8251121 34.5724832 17.6143497 35.0733608 18.4992526 35.1329892 19.9581465 35.9558596 20.6875934 36.1228188 21.4409567 36.4209602 21.7279522 36.8383582 21.6442452 37.2198601 23.0672646 37.2198601 23.0672646 38.1501807 22.9596412 38.4006195 22.5889388 38.6033557 22.935725 38.9730511 22.7085202 39.4739287 22.7802691 39.569334 23.1988042 40.12984 23.7727952 40.058286 24.1315396 39.7005162 24.3348281 40.9288591 24.4304932 42.431492 24.0717489 42.956221 23.3542601 42.9800722 22.5769806 45.0432112 22.1584454 44.9835828 21.0104634 45.3771296 20.9147982 45.782602 20.245142 45.4367578 20.0179372 44.9716572 18.9058296 45.3056949 18.6068759 45.3772488 18.3318386 44.1250547 17.5306427 43.6003257 16.9686098 43.6838053 16.5859492 43.4573371 16.2511211 43.0995673 16.1554559 42.0142132 16.5500748 41.6802947 16.3348281 41.4060047 16.6337818 40.487729 16.490284"></polygon>
            <polygon id="Path" fill="#E2F2EB" fill-rule="nonzero" points="50.2547238 25.6502243 49.9565823 25.9133034 49.5629163 25.7339313 47.8813986 25.9491779 47.2135617 24.4783258 46.724729 23.916293 46.4623645 24.2152467 46.1284461 23.103139 45.5321632 22.3617339 45.0432112 22.1584454 42.9800722 22.5769806 42.956221 23.3542601 42.431492 24.0717489 43.3259163 25.0881913 43.3855447 25.8535127 42.7654104 26.5112108 42.9085183 26.9058296 42.6938565 27.2286996 41.9902427 27.671151 42.395715 28.0538117 42.6938565 28.9865471 42.3122354 29.0702541 42.1094992 29.3931241 42.3718637 30.2660688 42.1453954 31.0433483 42.5150908 31.3303438 42.9324889 32.3467863 42.9682659 33.1360239 43.2664073 33.3991032 43.2306303 34.1883408 43.0517455 35.3841554 43.8269132 36.2331838 44.6855607 36.2571002 45.0671817 36.0298953 45.6396133 36.5201793 46.4386324 35.7189836 47.3449824 37.5246637 48.3944403 37.9192825 48.6091022 38.2421525 48.5494739 38.9835576 48.0487155 39.6053812 48.0487155 40.0119582 48.7404037 40.4424514 49.8137129 40.2391629 50.0880031 40.5261584 50.8512452 40.0119582 50.8988286 39.6053812 51.209015 39.3542601 51.4951115 39.593423 51.8052979 39.3662183 52.1392163 39.5814648 52.3538782 39.2705531 53.1171202 40.2989537 53.9042137 37.4887893 54.6913072 37.6920778 55.4068467 37.5246637 56.0508322 37.9551569 56.0627578 37.9551569 56.6353088 38.9955157 57.0288554 38.9955157 57.0288554 39.4020927 57.4224022 39.3781764 57.9590567 38.8041853 58.4122318 39.019432 58.4599344 39.3781764 58.9845442 39.3662183 59.7121286 38.9237668 60.3441884 38.0508221 60.3203371 38.038864 60.7973634 36.4125561 62.3715503 34.9656203 62.2642194 33.6621823 63.4092018 32.8609866 64.9833888 30.9237668 64.9474925 30.5411062 65.2576789 30.2541106 64.6852473 29.7757848 64.8164295 29.3811659 65.3173072 28.8071749 65.8419169 28.735426 65.8778131 28.7473842 65.6034037 28.0418535 65.2219019 28.0657698 65.1622736 26.8460388 64.1485927 26.1763827 64.0172912 26.2600897 62.8963986 25.3751868 62.2045911 25.6741405 61.5486799 25.1838565 60.7973634 25.3991032 59.8553557 24.8251121 58.7700016 25.6023917 58.8057785 25.793722 58.4957114 26.2242153 58.1140903 26.1763827 57.8398002 26.4992526 57.7920976 27.6233184 57.3867444 27.754858 57.088603 27.5156951 56.2061042 28.0418535 56.0510708 28.3766816 56.0510708 28.3766816 56.4207662 28.1494768 56.0510708 28.3766816 56.0510708 28.3766816 55.4070852 28.6278027 55.4070852 28.245142 55.0017321 28.0418535 53.7733892 27.7668162 53.4632029 27.1210763 53.8330176 26.7982063 53.7017161 26.3916293 53.4632029 26.0807175 53.0696562 26.0448431 53.1173588 25.6621823 52.7595891 25.5306428 52.6879158 25.1599403 52.2229344 25.064275 52.2229344 25.0762332 51.7100118 25.0044843 51.077952 25.5306428"></polygon>
            <polygon id="Path" fill="#C5E6D8" fill-rule="nonzero" points="40.9288591 24.4304932 39.7005162 24.3348281 40.058286 24.1315396 40.12984 23.7727952 39.569334 23.1988042 39.4739287 22.7802691 38.9730511 22.7085202 38.6033557 22.935725 38.4006195 22.5889387 38.1501807 22.9596412 37.2198601 23.0672646 37.2198601 23.0672646 36.8383582 21.6442452 36.4209603 21.7279522 36.1228188 21.4409567 35.9558596 20.6875934 35.1329892 19.9581465 35.0733608 18.4992526 34.5724832 17.6143497 33.7734641 18.5470852 33.8092411 18.9177877 33.010222 19.0971599 32.6286009 18.8819133 31.9130614 19.3124066 31.1140423 19.4559043 30.7920496 19.8026906 30.8159009 20.2331838 31.4479607 20.819133 31.4241094 21.4289985 31.4956634 22.038864 30.4819824 22.7324365 30.6250903 23.7369207 30.637016 23.7369207 30.9113062 24.2511211 30.8516778 24.490284 30.8516778 24.5022422 30.5773877 24.7772795 30.8159009 25.0762332 30.8636035 25.8176382 30.0288074 27.2526158 29.5994837 27.3841554 29.5160042 27.8624813 28.4903975 28.4603887 28.1207021 28.4245142 28.1803304 28.8669656 27.3693857 28.5201793 27.2620547 28.8430493 27.0354672 30.0866966 26.2722251 32.1434977 26.2722251 32.1554559 26.9996902 32.5859492 27.0354672 33.0164424 27.4290139 32.980568 27.6078988 33.793722 27.9775942 33.9850523 29.3251936 33.9252616 29.1224574 33.5426009 29.8499226 33.9372197 29.8737739 34.3557548 31.1140423 36.1136024 30.9947857 36.8908819 31.6268457 37.4768311 32.0084667 37.4768311 32.3662364 38.206278 32.7001549 38.3736921 32.485493 38.7563527 32.8432627 38.8998505 33.6184306 38.7563527 33.8450181 39.0792227 34.2147135 38.696562 35.7531234 38.5530642 36.0035622 38.2182362 37.7804852 38.5769806 38.1502999 38.4693572 38.8062112 38.4932736 38.8062112 38.4932736 39.2711926 37.6920777 40.4399071 37.5605381 40.6664946 37.2376682 40.4399071 36.5201793 40.7380485 36.2690583 41.8709861 35.8863976 42.5149716 35.3841554 43.0516262 35.3841554 43.2305111 34.1883408 43.2662881 33.3991032 42.9681466 33.1360239 42.9323697 32.3467862 42.5149716 31.3303438 42.1452762 31.0433482 42.3717444 30.2660687 42.10938 29.3931241 42.3121162 29.0702541 42.6937372 28.9865471 42.3955957 28.0538117 41.9901234 27.671151 42.6937372 27.2286996 42.9083991 26.9058296 42.7652912 26.5112107 43.3854254 25.8535127 43.3257971 25.0881913 42.4313727 24.0717489"></polygon>
            <path d="M40.7380485,36.2690583 L40.4399071,36.5201793 L40.6664946,37.2376682 L40.4399071,37.5605381 L39.2711926,37.6920777 L38.8062112,38.4932736 L38.8062112,38.4932736 L38.9491998,39.019432 C39.2832375,39.2346786 39.6171559,39.4499252 39.9391487,39.6771301 L40.4281007,40.7892377 L40.3565468,41.3393124 L40.6666138,42.2481315 L39.4144198,43.4080717 L40.0107027,44.1494768 L40.1776618,44.8908819 L39.9391487,45.22571 L40.2013939,47.0911808 L39.3665978,46.8161435 L39.2832375,47.2825112 L38.2695565,48.5620329 L38.5080697,48.8609866 L38.1978833,49.1240657 L38.1621063,49.5785949 L37.7447083,49.7340508 L37.9474445,50.1765022 L37.5061952,50.4394619 L37.6373774,51.1690284 L38.1502999,51.9821823 L37.9117868,52.7475037 L38.3529169,53.4171599 L39.0447243,52.9866667 L39.8914461,53.2019133 L40.4042493,52.5442152 L40.8097218,51.3363228 L41.4417816,50.7623318 L42.1453954,51.3004484 L42.3122354,51.8624813 L42.6342282,52.0777279 L42.5626743,52.4843049 L42.9083991,53.1659192 L43.8386004,51.0372497 L44.0771136,51.3362032 L45.1146458,50.4393423 L45.4127873,50.6665471 L45.6155235,51.4318685 L46.4741709,51.5991629 L46.4980222,51.2165022 L46.879524,51.2524962 L48.0841348,52.2808968 L48.3584249,53.5006278 L49.3005519,55.4139312 L50.3379649,56.0835874 L51.2800919,55.4977578 L51.3039433,55.916293 L51.6378617,55.6173393 L52.0075571,55.6173393 L52.8186211,56.0717489 L52.8068147,55.5814648 L53.5819824,55.6772497 L54.0590088,56.2512407 L55.2277233,55.7250822 L55.5497161,55.9165322 L55.8836345,55.6175785 L55.9432628,56.394858 L57.1954569,56.5023617 L57.2075018,56.8850224 L57.9109964,57.1960538 L58.4835473,56.5503139 L58.7936143,56.5383557 L58.9247966,56.5144395 L58.9486479,55.8805381 L57.6129742,55.1153363 L57.4103573,54.7565919 L57.8514873,54.0749776 L58.4001869,54.2663079 L58.7341053,53.9314798 L58.3405586,53.6325262 L58.674477,52.723707 L59.4377192,52.6758744 L59.4853025,52.2214648 L59.616604,51.8148879 L60.3558756,51.6475934 L60.4751322,51.2649327 L62.1685757,50.7507324 L62.574048,50.9061883 L62.6216314,50.1169507 L62.0373934,49.6984156 L61.8108059,49.1363827 L62.0135421,48.6221823 L63.0510743,49.0884305 L63.3253645,48.8253512 L64.1363093,48.6698953 L64.1363093,48.6698953 L64.1363093,48.6579372 L66.7241771,47.5458296 L66.9865416,47.055426 L66.831508,46.7087593 L67.2012034,46.0150672 L66.2232994,45.3214947 L65.925158,44.5920478 L66.0205633,44.1735127 L65.2692468,43.8624813 L64.8876258,43.5037369 L64.8279974,43.0732437 L64.8400423,43.0612855 L65.94889,41.9730942 L66.0800723,41.5545591 L65.6268973,40.9446936 L64.589365,39.9521674 L64.8875064,39.1270553 L64.3985545,38.3976083 L64.4701084,38.0149477 L64.0169334,37.9192825 L62.8839958,38.0029895 L62.2042333,38.5650224 L61.7510583,38.3736921 L61.3694373,39.1509716 L61.6914301,39.5575486 L60.7612287,40.2869955 L59.8191017,40.406577 L59.8191017,40.3946188 L59.8907749,39.7249627 L60.6659427,39.2466367 L60.8090506,38.3139013 L60.3439499,38.0508221 L59.71189,38.9237668 L58.9843057,39.3662182 L58.4596959,39.3781764 L58.4119933,39.019432 L57.9588183,38.8041853 L57.4221637,39.3781764 L57.0286169,39.4020927 L57.0286169,38.9955157 L56.6350703,38.9955157 L56.0625193,37.9551569 L56.0505937,37.9551569 L55.4066082,37.5246637 L54.6910687,37.6920777 L53.9039753,37.4887892 L53.1168818,40.2989537 L52.3536397,39.2705531 L52.1389778,39.5814648 L51.8050593,39.3662182 L51.494873,39.593423 L51.2087765,39.3542601 L50.8985901,39.6053812 L50.8510068,40.0119582 L50.0877646,40.5261584 L49.8134744,40.2391629 L48.7401652,40.4424514 L48.048477,40.0119582 L48.048477,39.6053812 L48.5492354,38.9835576 L48.6088637,38.2421525 L48.3942018,37.9192825 L47.3447439,37.5246637 L46.4383939,35.7189836 L45.6393748,36.5201793 L45.0669433,36.0298953 L44.6853222,36.2571002 L43.8266748,36.2331838 L43.051507,35.3841554 L42.5148523,35.3841554 L41.8708668,35.8863976 L40.7380485,36.2690583 Z M55.2873516,55.0672646 L54.9654781,55.5455904 L54.4288234,55.7130045 L54.1664589,55.4140508 L54.3332989,55.0074738 L54.6910687,54.7085202 L55.2873516,55.0672646 Z" id="Shape" fill="#FFFFFF" fill-rule="nonzero"></path>
            <path d="M38.8060919,38.4932736 L38.1501807,38.4693572 L37.780366,38.5769806 L36.0034429,38.2182362 L35.7530042,38.5530643 L34.2145942,38.696562 L33.8448988,39.0792227 L33.6183113,38.7563527 L32.8431435,38.8998505 L32.4853737,38.7563527 L32.7000356,38.3736921 L32.3661172,38.206278 L32.0083474,37.4768311 L31.6267264,37.4768311 L30.9946665,36.8908819 L31.1139231,36.1136024 L29.8736546,34.3557548 L29.8498033,33.9372197 L29.1223382,33.5426009 L29.3250743,33.9252616 L27.977475,33.9850523 L27.6077796,33.793722 L27.4288947,32.980568 L27.035348,33.0164424 L26.999571,32.5859492 L26.2721058,32.1554559 L25.3776815,32.9566517 L25.07954,32.6457399 L23.7796432,32.6696562 L23.0283268,32.7772795 L22.5393748,33.4230194 L20.893634,33.5306427 L21.1917754,34.2959642 L21.764207,34.8460388 L22.3962669,37.2496263 L22.3604899,38.2541106 L22.6944083,38.5171898 L21.4779912,39.1150972 L21.1679241,38.8759343 L20.2973511,38.9118087 L20.4762359,38.5171898 L19.2955957,38.9835576 L18.6873872,40.2750373 L19.0809339,40.3946188 L19.6295142,41.470852 L19.2598188,41.5306428 L19.4744807,42.2481315 L19.0809339,43.0254111 L18.448874,43.4560239 L18.6158333,44.0418535 L19.6652912,44.6995516 L21.0605932,46.1943199 L21.346809,47.1988042 L21.346809,47.2107623 L21.4183629,47.5695068 L21.1321472,48.0240358 L20.7982287,46.9715994 L19.3671497,45.5605381 L19.2359675,45.1898356 L18.84254,45.9551569 L18.0196696,52.6995516 L18.5443986,51.6472347 L19.1406815,52.3408072 L19.1764584,52.7234678 L18.3178111,52.6038864 L17.8884873,53.5246637 L17.900413,54.1584454 L16.4335571,60.8789238 L15.9207537,61.8355755 L15.9088281,61.8355755 L15.3006195,62.6846039 L14.4538977,63.3064275 L15.2290656,63.6651719 L15.3006195,64.0956652 L15.598761,63.8087893 L16.4812597,63.9881614 L16.6720702,64.3707025 L16.4216314,65.1600598 L16.0757873,65.4709716 L16.2427465,65.8536323 L16.7674755,65.9851719 L16.8271037,65.4948879 L17.2206505,65.3753064 L17.2564275,65.829716 L18.0435209,66.2482511 L19.331492,66.7504933 L20.1782137,66.7026607 L20.5240578,67.336562 L21.5735157,68.197429 L21.8835828,67.9821823 L22.19365,68.1736323 L22.9926691,67.7550972 L23.0045947,67.7670553 L23.0045947,67.7550972 L23.1715539,66.6069955 L23.3862158,66.2243348 L23.8393908,66.1168311 L23.7797625,65.7222123 L24.8649974,64.478565 L24.7576665,64.0719881 L25.1154362,63.8806577 L25.0438823,62.8998505 L24.6622612,62.8998505 L24.8530717,62.529148 L24.5191533,61.7518685 L24.5191533,61.7518685 L23.6366546,61.7040358 L23.4219927,61.3452915 L23.9944243,59.8505232 L23.9347961,59.0014948 L25.1750645,58.6307923 L25.2704698,59.0372497 L25.6043882,58.8578774 L25.6401652,58.4752168 L25.6401652,58.4632586 L26.1410428,58.5469656 L26.3318534,58.2121375 L27.4409396,58.3078027 L28.1207021,57.925142 L29.2655653,58.0566816 L29.6233351,57.8773094 L30.1003614,57.2435277 L30.4819824,57.2794021 L30.3030976,56.9086996 L30.8993805,56.179133 L30.5773877,55.9878027 L30.5773877,55.5931838 L31.579143,55.3301047 L31.2213732,54.1103737 L31.6745482,53.6798804 L32.3066082,52.8188938 L33.1175529,52.3644843 L33.0221477,51.8861584 L33.6303562,51.4555456 L33.8211667,50.7380568 L33.916572,50.056562 L34.9898812,49.9607773 L35.8962312,50.7740508 L36.5998451,50.4153064 L37.5061952,50.4391032 L37.9474445,50.1761435 L37.7447083,49.7336921 L38.1621063,49.5782362 L38.1978833,49.123707 L38.5080697,48.8607474 L38.2695565,48.5617938 L39.2832375,47.2822721 L39.3665978,46.8159043 L40.2013939,47.0909417 L39.9391487,45.2254708 L40.1776618,44.8906427 L40.0107027,44.1492377 L39.4144197,43.4078326 L40.6666138,42.2478924 L40.3565467,41.3390732 L40.4281007,40.7889985 L39.9391487,39.6768909 C39.6171559,39.4496861 39.2832375,39.2344395 38.9491998,39.0191928 L38.8060919,38.4932736 Z M24.4833763,64.083707 L24.495302,64.4544096 L24.1971606,64.2391629 L24.4833763,64.083707 Z" id="Shape" fill="#E2F2EB" fill-rule="nonzero"></path>
            <polygon id="Path" fill="#C5E6D8" fill-rule="nonzero" points="21.1680433 13.5127055 20.4525038 13.8236173 19.5938565 12.4125561 19.9277749 11.3602392 19.784667 10.9895366 18.914094 10.8938714 18.5801755 11.1330344 17.7096025 11.1928251 16.1831182 10.5710015 16.1592669 10.9536622 16.6005162 11.1928251 16.6720702 11.8505232 16.4097057 12.1255605 16.7555498 13.4887892 17.8884873 14.7204783 17.7096025 16.0717489 17.971967 16.4544096 17.900413 17.2556054 17.6022716 18.0209267 18.1627775 19.2765322 18.5086216 19.4559043 18.84254 19.2406577 18.7113577 19.6352765 17.7692307 19.7428998 18.4012907 21.0224215 18.7590604 21.142003 19.7131131 20.5082212 20.4405782 20.819133 21.5973671 20.9267563 22.0386164 21.4289985 22.3606092 21.2137518 22.6945276 21.4409567 23.6008777 20.9985052 24.8172947 20.9985052 24.9127001 20.6278027 25.2823954 20.6636772 25.5447599 21.4768311 25.9740837 21.6801196 25.9740837 22.0747384 26.379556 22.0866966 27.846412 21.309417 28.2161074 21.5127055 28.4307692 22.6367713 29.3967476 23.3064275 29.7783686 23.1748879 30.2076923 23.6412556 30.6250903 23.7369207 30.637016 23.7369207 30.6250903 23.7369207 30.4819824 22.7324365 31.4956634 22.038864 31.4241094 21.4289985 31.4479607 20.819133 30.8159009 20.2331838 30.7920496 19.8026906 31.1140423 19.4559043 31.9130614 19.3124066 32.6286009 18.8819133 33.010222 19.0971599 33.8092411 18.9177877 33.7734641 18.5470852 34.5724832 17.6143497 34.3339701 16.8251121 34.6559628 16.490284 35.1687662 16.490284 35.6934951 15.2227205 36.2301497 14.8759342 35.7531234 13.7518685 35.9439339 12.6756352 35.7531234 11.4917787 36.1585957 10.8699552 35.7054207 9.73393125 34.0239029 8.29895366 34.0239029 8.29895366 34.0000517 8.33482808 32.5451213 9.35127058 29.5875581 10.0926757 27.6794527 11.1210762 26.904285 12.819133 27.1308725 13.1180867 28.3115127 13.3811659 28.335364 13.3931241 28.1326277 13.4768311 27.1905007 13.6920777 26.5465152 14.2541106 25.2466185 14.6248132 24.1136809 14.1464873 22.4440888 13.9551569"></polygon>
            <polygon id="Path" fill="#C5E6D8" fill-rule="nonzero" points="13.4759938 19.2286996 12.9989675 19.264574 11.5559628 20.4603887 11.4367063 19.9701047 10.9000517 19.6233184 10.888126 19.2047832 10.2799174 18.1524663 9.88637067 18.0687593 9.96985025 17.6860987 9.56437792 17.7339312 9.33779042 18.1285501 9.51667525 17.2436472 8.88461542 17.6741405 8.81306142 17.1958147 7.63242127 17.6860987 7.44161074 17.3632287 6.83340217 17.8535127 6.78569953 18.6786248 6.35637584 18.7503737 5.70046463 18.3437967 5.31884358 18.4275037 5.23536397 18.8819133 4.93722251 18.5231689 4.72256066 18.9536622 4.710635 18.0807175 2.77867837 18.6666667 2.57594218 18.3079222 1.21641714 19.0493273 1.56226123 19.2286996 0.441249355 19.1091181 0.190810532 19.4319881 0 20.6397608 0.238513165 20.9506727 0.60820857 20.7952167 0.954052658 20.9626308 2.59979349 20.4723467 2.09891585 20.7115097 2.0273619 21.1659192 2.826381 20.9745889 2.76675271 21.3572497 3.16029943 21.5246637 2.74290139 21.6083707 3.58962313 21.9671151 2.79060403 21.7757847 2.59979349 21.4409567 2.09891585 21.5844544 1.32374807 21.4289985 1.09716056 21.1061286 0.894424367 21.5964126 1.21641714 22.3019432 1.45493031 21.9312407 1.82462571 21.9671151 2.55209086 22.3856502 2.67134744 22.8161435 2.4566856 23.1509716 2.13469283 22.9715994 0.441249355 23.1390134 0.238513165 23.4738416 1.51455859 23.9521674 2.01543624 24.7892377 1.87232834 25.5306427 2.85023232 25.6143497 3.33918431 25.0523169 3.33918431 25.0044843 3.33918431 24.9925262 3.23185338 24.6098655 3.37496128 24.5859492 3.42266392 24.1674141 3.61347444 24.5500747 3.37496128 24.5859492 3.33918431 25.0044843 3.73273103 25.2675635 4.35286526 25.0403587 4.98492514 25.8415546 5.36654621 25.7578475 5.36654621 25.3751868 5.41424884 25.7458894 5.41424884 25.7578475 5.76009293 25.6263079 5.67661332 26.0089686 6.05823438 26.0926757 6.57103768 25.8893872 6.594889 25.4828102 6.69029427 26.5112107 7.0242127 26.7264574 7.39390811 26.5470852 7.39390811 26.5351271 7.33427982 25.7578475 7.40583377 26.1644245 7.79938048 26.2361734 7.51316469 26.5231689 7.71590088 26.8819133 8.20485287 27.0852018 8.56262258 26.9297459 8.22870418 27.0971599 8.27640682 27.4678625 8.56262258 27.8505232 8.45529167 28.3408072 8.7415075 28.651719 8.58647392 28.2690583 8.94424367 27.9461883 9.37356733 27.8505232 9.69556017 28.0896861 9.52860092 27.3004484 9.945999 27.9581465 10.1487352 27.6113602 10.6376872 27.6950672 10.9239029 28.0179372 10.6615385 28.3527653 9.81481675 28.245142 10.4588023 28.7473842 12.1164688 28.6158446 12.4861642 28.819133 12.0806918 28.8430493 12.2953537 29.1898356 14.3584925 28.5799701 14.4061952 27.7787742 15.109809 27.3243647 16.8628808 27.264574 17.0775426 26.8819133 18.2820341 26.3557548 19.2003098 26.8340807 19.2599381 26.5470852 19.7369644 25.387145 20.4763552 25.0881913 20.2259163 22.7563527 20.4286526 22.4454409 20.4405783 20.819133 19.7131131 20.5082212 18.7590604 21.142003 18.4012907 21.0224215 17.7692308 19.7428998 16.2188952 19.7428998 16.2546722 18.9895366 15.8253485 19.0852018 15.2886938 19.5994021 15.6345379 20.3527653 15.3244708 20.1016442 15.0859577 19.5037369 14.7043366 19.5037369 14.7043366 19.754858 14.1557563 19.8026906 14.0245741 19.3841554 13.6191017 19.5754858"></polygon>
            <polygon id="Path" fill="#FFFFFF" fill-rule="nonzero" points="17.0775426 26.8819133 16.8628808 27.264574 15.109809 27.3243647 14.4061952 27.7787742 14.3584925 28.5799701 12.2953537 29.1898356 11.6990708 29.7757847 12.0210635 30.6008968 12.8320083 30.7443946 13.1062984 31.0074738 13.7622096 30.5171898 14.7281879 30.4334828 13.8218379 30.7802691 13.7383583 31.6771301 13.3328859 31.8445441 14.131905 32.1315396 14.7758906 32.8011958 13.7264327 33.9133034 13.7860609 34.5112107 15.1813629 36.1494768 15.4556531 37.0941704 16.540888 38.0029895 17.1848735 38.1464873 17.3876097 38.6248132 18.1985545 38.7802691 18.8186887 39.2944693 18.914094 38.9237668 19.295715 38.9835576 20.4763552 38.5171898 20.2974703 38.9118087 21.1680433 38.8759342 21.4781105 39.1150972 22.6945276 38.5171898 22.3606092 38.2541106 22.3963862 37.2496263 21.7643263 34.8460388 21.1918947 34.2959642 20.8937533 33.5306427 22.5394941 33.4230194 23.0284461 32.7772795 23.7797625 32.6696562 25.0796593 32.6457399 25.3778008 32.9566517 26.2722251 32.1554559 26.2722251 32.1434977 27.0354673 30.0866966 27.2620548 28.8430493 27.3693857 28.5201793 28.1803304 28.8669656 28.1207021 28.4245142 28.4903975 28.4603887 29.5160042 27.8624813 29.5994838 27.3841554 30.0288074 27.2526158 30.8636035 25.8176382 30.8159009 25.0762332 30.5773878 24.7772795 30.8516778 24.5022422 30.8516778 24.490284 30.9113062 24.2511211 30.637016 23.7369207 30.6250903 23.7369207 30.2076923 23.6412556 29.7783686 23.1748879 29.3967476 23.3064275 28.4307693 22.6367713 28.2161074 21.5127055 27.846412 21.309417 26.379556 22.0866966 25.9740837 22.0747384 25.9740837 21.6801196 25.5447599 21.4768311 25.2823954 20.6636772 24.9127001 20.6278027 24.8172948 20.9985052 23.6008777 20.9985052 22.6945276 21.4409567 22.3606092 21.2137518 22.0386164 21.4289985 21.5973671 20.9267563 20.4405783 20.819133 20.4286526 22.4454409 20.2259163 22.7563527 20.4763552 25.0881913 19.7369644 25.387145 19.2599381 26.5470852 19.2003098 26.8340807 18.2820341 26.3557548"></polygon>
            <polygon id="Path" fill="#C5E6D8" fill-rule="nonzero" points="35.8962312 50.7744096 34.9898812 49.961136 33.916572 50.0569208 33.8211668 50.7384156 33.6303563 51.4559043 33.0221477 51.8865172 33.1175529 52.3648431 32.3066082 52.8192526 31.6745483 53.6802392 31.2213732 54.1107324 31.579143 55.3304634 30.5773877 55.5935426 30.5773877 55.9881614 30.8993805 56.1794918 30.3030976 56.9090583 30.4819824 57.2797608 30.1003614 57.2438864 29.6233351 57.8776682 29.2655653 58.0570403 28.1207021 57.9255008 27.4409396 58.3081614 26.3318534 58.2124963 26.1410428 58.5473243 25.6401652 58.4636173 25.6401652 58.4755755 25.6043882 58.8582362 25.2704698 59.0376083 25.1750645 58.631151 23.9347961 59.0018535 23.9944243 59.8508819 23.4219927 61.3456503 23.6366546 61.7043946 24.5191533 61.7522272 24.5191533 61.7522272 24.8530717 62.5295068 24.6622613 62.9002093 25.0438823 62.9002093 25.1154363 63.8807773 24.7576665 64.0721076 24.8649974 64.4786846 23.7797625 65.7223318 23.8393908 66.1169507 23.3862158 66.2244544 23.1715539 66.6071151 23.0045947 67.7552168 23.0045947 67.7671749 24.5072277 69.1064873 26.1410428 68.8792825 26.4749612 69.166278 27.7987093 69.1423618 28.6335054 69.1901943 28.9435725 68.8912407 28.8958699 68.0181764 29.2178627 67.8388042 30.1242127 68.1498356 31.4598864 68.4965023 32.103872 69.0824514 32.9625193 69.0226607 33.7257615 70.0391032 33.8569437 69.6444843 34.3101188 69.620568 35.7292721 70.3021823 35.4669076 70.9598804 36.6475478 71.3065471 36.9577341 72.0718685 37.3870578 72.0957848 37.9833408 71.5576682 38.4126644 71.5337518 39.6769035 71.8327055 40.2970377 72.3110314 41.1318338 72.2512407 41.1318338 71.8447833 42.2170687 71.2827503 43.0637904 71.1271749 44.2087728 71.4382063 43.4336051 70.4694768 43.3859024 68.1138416 43.4455308 66.7863678 44.1968472 65.3513902 44.5546169 64.9926458 45.2822013 64.442571 46.1885513 64.442571 47.0829758 63.4738416 48.5498317 62.4096861 49.6708436 62.0868162 50.0643903 62.7445142 50.4698627 62.8401793 50.493714 62.8401793 51.0065173 62.0509417 51.7816851 61.8117788 51.6503836 61.4410763 52.2108895 60.7953363 52.6521388 60.9149178 52.9025777 59.4918983 54.0355153 58.272287 53.1887935 57.4113004 53.1645844 56.6816143 52.8188596 56.0717489 52.0077956 55.6173393 51.6381002 55.6173393 51.3041818 55.916293 51.2803304 55.4977578 50.3382034 56.083707 49.3007904 55.4140508 48.3586634 53.5007474 48.0843732 52.2810164 46.8797625 51.2526158 46.4981414 51.2167414 46.4742902 51.5994021 45.6156428 51.4321076 45.4129066 50.6667863 45.1147651 50.4395815 44.0772328 51.3364424 43.8387197 51.0374888 42.9085183 53.1661584 42.5627935 52.4845441 42.6343474 52.0779671 42.3123547 51.8627205 42.1452762 51.3004484 41.4416623 50.7623318 40.8096025 51.3363228 40.4041301 52.5442153 39.8913268 53.2019133 39.0446051 52.9866667 38.3527977 53.4171599 37.9116675 52.7475038 38.1501807 51.9821823 37.6372582 51.1690284 37.5060759 50.4394619 36.5997258 50.4156652"></polygon>
            <path d="M66.437842,50.7503737 L65.6268972,50.7144992 L64.9234027,50.2720478 L64.8160717,49.387145 L64.4463763,49.3751868 L64.13619,48.6696562 L64.13619,48.6696562 L63.3252452,48.8251121 L63.0509551,49.0881913 L62.0134228,48.6219432 L61.8106867,49.1361435 L62.0372742,49.6981764 L62.6215122,50.1167115 L62.5739287,50.9059492 L62.1684564,50.7504932 L60.4750129,51.2646936 L60.3557563,51.6473542 L59.6163655,51.8146487 L59.485064,52.2212257 L59.4374807,52.6756352 L58.6742385,52.7234678 L58.3403201,53.632287 L58.7338668,53.9312407 L58.3999483,54.2660687 L57.8512488,54.0747384 L57.4101187,54.7563527 L57.6127357,55.1150972 L58.9484094,55.8802989 L58.9245581,56.5142003 L58.7933758,56.5381166 L58.4833087,56.5500747 L57.9107578,57.1958147 L57.2073826,56.8849028 L57.1953377,56.5022422 L55.9431435,56.3947384 L55.8835152,55.6174589 L55.5495968,55.9164126 L55.2277232,55.7249627 L54.0590087,56.2511211 L53.5819824,55.6771301 L52.8068147,55.5813452 L52.8188596,56.0717489 L53.1645844,56.6816143 L53.1884357,57.4111808 L54.0351575,58.2721674 L52.9022199,59.4917787 L52.6517811,60.9147982 L52.2105317,60.7952167 L51.6500258,61.4409567 L51.7813273,61.8116592 L51.0061595,62.0508221 L50.4933562,62.8400597 L52.4133872,62.8998505 L52.6757517,63.2346786 L52.6161234,63.6055007 L53.1050753,63.7250822 L54.4049721,63.5696263 L54.1067114,63.2585949 L54.2735513,62.9237668 L54.643366,62.9596412 L55.2635002,63.6892077 L57.0284977,63.4859192 L57.5531074,64.6696562 L58.8530042,64.9925262 L59.2226995,64.8729447 L59.2465508,64.896861 L60.0694212,65.3751868 L60.0217187,65.7458894 L61.2142845,65.3992227 L62.0133036,65.6144693 L62.1683371,65.9971301 L62.4426272,65.255725 L63.4325762,65.423139 L63.4445018,65.0404783 L64.1958182,64.8730642 L64.553588,64.5382362 L65.0663913,64.5860687 L65.3645327,63.8565022 L64.8875064,63.6412556 L65.7103768,62.5530642 L66.437842,62.4572795 L67.0221992,61.4170403 L67.7854414,61.058296 L67.9284301,60.4962631 L69.8603867,59.4439462 L69.9320599,58.4753363 L70.7548111,57.3155157 L71.0291012,56.7295665 L70.4924466,56.0240358 L68.906334,56.5860687 L67.6779912,55.9283707 L66.8312695,55.7609567 L66.0083991,54.7684305 L65.9845477,54.7564723 L66.2469122,54.0866966 L65.7221832,53.3572497 L66.0203247,53.1180867 L66.1992096,52.3168909 L66.1992096,52.3049327 L66.2230609,52.2810164 L66.4615741,51.9940209 L66.9386004,52.0060987 L66.437842,50.7503737 Z M55.9909654,62.6846039 L56.4322147,62.5052317 L56.1340733,63.0074738 L55.7046303,63.1629297 L55.0964217,62.5889387 L55.1679757,62.1345292 L55.7046303,62.1345292 L55.9909654,62.6846039 Z" id="Shape" fill="#E2F2EB" fill-rule="nonzero"></path>
            <polygon id="Path" fill="#FBFAF9" fill-rule="nonzero" points="8.28833247 30.2182362 8.81306142 30.0508221 8.13329892 29.5964126 7.75167785 29.6442452 7.87093443 30.0866966"></polygon>
            <polygon id="Path" fill="#EFF6F2" fill-rule="nonzero" points="17.3756841 39.6532137 17.3756841 39.6532137 17.3637584 39.6651719 17.9600413 40.2032885 18.353588 40.0358744 17.6261228 39.5696263"></polygon>
            <polygon id="Path" fill="#EFF6F2" fill-rule="nonzero" points="18.5801755 41.7339312 17.8884873 41.2795217 17.6618998 41.6502243 18.5205472 43.1570702 18.6994321 42.7264574"></polygon>
            <polygon id="Path" fill="#ADDCC7" fill-rule="nonzero" points="67.833144 69.1061286 67.9048172 67.671151 67.6663041 66.45142 67.284683 66.3079222 66.9744967 66.5829597 67.0341249 68.9147982 65.8774553 68.735426 65.4123547 69.3931241 63.96935 69.9672347 63.8620191 70.3497757 63.480398 70.3857698 63.194063 70.7683109 63.22984 71.2346786 62.705111 71.9044544 62.6335571 72.2869955 62.9792819 72.1554559 63.4922044 72.7174887 62.7885906 73.2197309 62.9316985 73.9610164 63.9929628 74.5589237 63.6351931 74.77429 63.2416463 75.8982362 64.2077439 75.5515695 64.3389262 76.328849 63.9811564 77.273423 65.2452762 77.5246637 64.589365 77.9671151 64.5656329 78.3736921 65.2094992 78.9596412 66.7122514 79.4140508 66.8790914 79.7967115 67.2726381 79.964006 68.0598508 77.9789537 67.6186014 77.9430792 67.9763712 77.6679222 68.2506613 76.9384753 68.1552561 75.7785352 68.1552561 74.9535426 68.8827213 73.351151 68.3699179 69.8593722"></polygon>
            <line x1="66.1993288" y1="52.3168909" x2="66.2231802" y2="52.2810164" id="Path" stroke="#107449" stroke-width="1.25" stroke-linecap="round" stroke-linejoin="round"></line>
            <polyline id="Path" stroke="#107449" stroke-width="1.25" stroke-linecap="round" stroke-linejoin="round" points="24.495302 64.4544096 24.1971606 64.2391629 24.4833763 64.083707 24.495302 64.4544096"></polyline>
            <polyline id="Path" stroke="#107449" stroke-width="1.25" stroke-linecap="round" stroke-linejoin="round" points="14.4538977 63.3064275 15.2290656 63.6651719 15.3006195 64.0956652 15.598761 63.8087892 16.4812597 63.9881614 16.6720702 64.3707025 16.4216314 65.1599402 16.0757873 65.470852 16.2427465 65.8535127 16.7674755 65.9850523 16.8271037 65.4947683 17.2206505 65.3751868 17.2564275 65.8295964 18.0435209 66.2481315 19.331492 66.7503737 20.1782137 66.7025411 20.5240578 67.3364424 21.5735157 68.1973094 21.8835828 67.9820627 22.19365 68.1735127 22.9926691 67.7549776 23.0045947 67.7668162 24.5072277 69.1061286 26.1410428 68.8789237 26.4749612 69.1659192 27.7987093 69.142003 28.6335054 69.1899552 28.9435725 68.8910015 28.8958699 68.0179372 29.2178627 67.838565 30.1242127 68.1494768 31.4598864 68.4962631 32.103872 69.0822122 32.9625193 69.0224215 33.7257615 70.038864 33.8569437 69.6442452 34.3101187 69.6203288 35.7292721 70.3019432 35.4669076 70.9596412 36.6475477 71.3064275 36.9576148 72.0717489 37.3869386 72.0956652 37.9832215 71.5575486 38.4125452 71.5336322 39.6766649 71.8325859 40.2967992 72.3109118 41.1315952 72.2511211 41.1315952 71.8446637 42.2168302 71.2826308 43.0635519 71.1270553 44.2084151 71.4379671"></polyline>
            <polyline id="Path" stroke="#107449" stroke-width="1.25" stroke-linecap="round" stroke-linejoin="round" points="69.8605059 59.4440657 69.9320599 58.4753363 70.7549303 57.3155157 71.0292204 56.7294469 70.4925658 56.0239163 68.9064532 56.5859492 67.6781105 55.9282511 66.8313887 55.7608371 66.0085183 54.7683109 65.984667 54.7563527 66.2470315 54.0866966 65.7223025 53.3572497 66.020444 53.1180867 66.1993288 52.3168909 66.1993288 52.3049327 66.2231802 52.2810164 66.4616933 51.9940209 66.9387197 52.0059791 66.437842 50.7503737 65.6268972 50.7146188 64.9232834 50.2720478 64.8159525 49.387145 64.4462571 49.3751868 64.13619 48.6696562 64.13619 48.6576981 66.7240578 47.54571 66.9864223 47.0553064 66.8313887 46.7086397 67.2010842 46.0149477 66.2231802 45.3213752 65.9250387 44.5919282 66.020444 44.1733931 65.2691275 43.8624813 64.8875064 43.5037369 64.8278782 43.0732437 64.8398038 43.0614051 65.94889 41.9730942 66.0800723 41.5545591 65.6268972 40.9446936 64.589365 39.952287 64.8875064 39.1270553 64.3985545 38.3976083 64.4701084 38.0149477 64.0169334 37.9192825 62.8839958 38.0029895 62.2042333 38.5650224 61.7510583 38.3736921 61.3694372 39.1509716 61.6914301 39.5575486 60.7612287 40.2869955 59.8191017 40.406577 59.8191017 40.3946188 59.8906557 39.7249627 60.6658234 39.2466368 60.8089313 38.3139013 60.3438307 38.0508221 60.3199793 38.038864 60.7970057 36.4125561 62.3711926 34.9656203 62.2638617 33.6621823 63.4087248 32.8609866 64.9829117 30.9237668 64.9471348 30.5411062 65.2572018 30.2541106 64.6847702 29.7757848 64.8159525 29.3811659 65.3168302 28.8071749 65.8415591 28.735426 65.8773361 28.7473842 66.2351058 28.819133 66.1277749 29.22571 67.1414558 29.22571 67.4992256 29.0941704 67.5707796 28.6875934 67.9524006 28.6636772 67.9762519 28.245142 68.2743934 27.9820627 67.8927723 26.941704 68.2505421 24.8729447 67.9881776 23.4857997 68.7871967 21.6083707 68.9899329 19.5037369 70.3852349 17.6741405 70.9099638 16.2391629 69.7770263 15.8325859 67.7973671 15.7608371 66.6763552 14.7563528 65.8415591 15.3183857 64.9113578 15.1509716 64.5655137 15.3183857 64.2673722 14.7922272 63.8618998 14.6008968 63.4922044 14.8161435 63.4564275 15.2107623 63.0867321 15.1150972 62.0134228 13.8834081 61.7868353 13.1061286 61.3813629 12.8310912 59.9025813 12.4843049 59.3062984 12.9506727 58.936603 12.9626308 58.2449148 12.651719 57.7678885 12.2571002 56.8496128 12.2571002 56.6826536 12.6278027 55.9313371 12.7234678 55.4662364 11.754858 55.0488384 11.7907324 55.0488384 11.3721973 54.2378937 11.1689088 53.3315436 10.367713 52.5444502 10.3916293 52.6637067 9.51868458 52.2820857 8.75336325 52.2820857 8.20328849 52.6398554 7.50971599 52.2820857 7.3064275 51.7215797 7.88041853 51.4949922 8.74140508 50.3262777 9.2675635 49.6107382 9.04035875 49.2291172 9.12406575 49.1814146 9.12406575 48.6924626 8.96860983 49.1337119 8.11958147 48.7282396 7.41405083 49.0025297 6.54110612 48.6328342 6.62481315 48.084254 5.9671151 47.2733092 6.11061286 46.5458441 5.94319881 46.2477027 6.20627802 45.9614868 4.98654708 45.2340217 4.80717489 45.0789882 4.44843049 44.6973671 4.73542601 44.2680433 4.59192825 43.862571 3.45590433 43.9221992 3.04932736 43.3974703 2.46337817 42.6103768 2.52316891 41.8709861 3.03736921 41.4774393 2.86995516 41.0958183 2.16442452 40.6545689 2.16442452 40.4756841 1.80568012 40.6187919 1.04035874 40.2729478 0.227204783 39.9032524 0"></polyline>
            <polyline id="Path" stroke="#107449" stroke-width="1.25" stroke-linecap="round" stroke-linejoin="round" points="56.0505937 28.3766816 55.4066082 28.6278027 55.4066082 28.245142 55.0011357 28.0418535 53.772793 27.7668162 53.4627258 27.1210763 53.8324212 26.7982063 53.701239 26.3916293 53.4627258 26.0807175 53.0691792 26.0448431 53.1168817 25.6621823 52.759112 25.5306428 52.6875581 25.1599403 52.2224574 25.064275 52.2224574 25.0762332 51.7096541 25.0044843 51.0775942 25.5306428 50.2547238 25.6502243 49.9565823 25.9133034 49.5630356 25.7339313 47.8815178 25.9491779 47.2136809 24.4783258 46.724729 23.916293 46.4623645 24.2152467 46.1284461 23.103139 45.5321632 22.3617339 45.0432112 22.1584454"></polyline>
            <polyline id="Path" stroke="#107449" stroke-width="1.25" stroke-linecap="round" stroke-linejoin="round" points="45.0432112 22.1584454 44.9835828 21.0104634 45.3771296 20.9147982 45.782602 20.245142 45.4367578 20.0179372 44.9716572 18.9058296 45.3055757 18.6068759 45.3771296 18.3318386"></polyline>
            <polyline id="Path" stroke="#107449" stroke-width="1.25" stroke-linecap="round" stroke-linejoin="round" points="42.431492 24.0717489 40.9288591 24.4304932 39.7005162 24.3348281 40.058286 24.1315396 40.12984 23.7727952 39.569334 23.1988042 39.4739287 22.7802691 38.9730511 22.7085202 38.6033557 22.935725 38.4006195 22.5889388 38.1501807 22.9596412 37.2199793 23.0672646 37.2199793 23.0672646 36.8383582 21.6442452 36.4209602 21.7279522 36.1228188 21.4409567 35.9558596 20.6875934 35.1329892 19.9581465 35.0733608 18.4992526 34.5724832 17.6143497"></polyline>
            <polyline id="Path" stroke="#107449" stroke-width="1.25" stroke-linecap="round" stroke-linejoin="round" points="45.0432112 22.1584454 42.9800722 22.5769806 42.956221 23.3542601 42.431492 24.0717489"></polyline>
            <polyline id="Path" stroke="#107449" stroke-width="1.25" stroke-linecap="round" stroke-linejoin="round" points="42.431492 24.0717489 43.3259163 25.0881913 43.3855447 25.8535127 42.7654104 26.5112107 42.9085183 26.9058296 42.6938565 27.2286996 41.9902427 27.671151 42.395715 28.0538117 42.6938565 28.9865471 42.3122354 29.0702541 42.1094992 29.3931241 42.3718637 30.2660687 42.1452762 31.0433482 42.5149716 31.3303438 42.9323697 32.3467862 42.9681466 33.1360239 43.2662881 33.3991032 43.2305111 34.1883408 43.0516262 35.3841554"></polyline>
            <path d="M37.5061952,50.4394619 L37.9474445,50.1765023 L37.7447083,49.7340508 L38.1621063,49.5785949 L38.1978833,49.1240658 L38.5080697,48.8611062 L38.2695565,48.5621525 L39.2832375,47.2826308 L39.3665978,46.8162631 L40.2013939,47.0913004 L39.9391487,45.2258296 L40.1776618,44.8910015 L40.0107027,44.1495964 L39.4144197,43.4081913 L40.6666138,42.2482511 L40.3565467,41.339432 L40.4281007,40.7893573 L39.9391487,39.6772497 C39.6171559,39.4500448 39.2832375,39.2347982 38.9491998,39.0195516 L38.8062112,38.4933931 L38.8062112,38.4933931 L39.2711926,37.6921973 L40.4399071,37.5606577 L40.6664946,37.2377878 L40.4399071,36.5202989 L40.7380485,36.2691779 L41.8709861,35.8865172 L42.5149716,35.384275 L43.0516262,35.384275" id="Path" stroke="#107449" stroke-width="1.25" stroke-linecap="round" stroke-linejoin="round"></path>
            <polyline id="Path" stroke="#107449" stroke-width="1.25" stroke-linecap="round" stroke-linejoin="round" points="44.2084151 71.4379671 43.4332472 70.4693572 43.3855447 68.113722 43.4451729 66.7862482 44.1964894 65.3512706 44.5542592 64.9925262 45.2817243 64.4424514 46.1880743 64.4424514 47.0824987 63.4738416 48.5493547 62.4095665 49.6703666 62.0866966 50.0639132 62.7443946 50.4693857 62.8400597 50.493237 62.8400597"></polyline>
            <polyline id="Path" stroke="#107449" stroke-width="1.25" stroke-linecap="round" stroke-linejoin="round" points="38.8060919 38.4932736 38.1501807 38.4693572 37.7804852 38.5769806 36.0035622 38.2182362 35.7531234 38.5530642 34.2147135 38.696562 33.8450181 39.0792227 33.6184306 38.7563527 32.8432627 38.8998505 32.485493 38.7563527 32.7001549 38.3736921 32.3662364 38.206278 32.0084667 37.4768311 31.6268457 37.4768311 30.9947857 36.8908819 31.1140423 36.1136024 29.8737739 34.3557548 29.8499226 33.9372197 29.1224574 33.5426009 29.3251936 33.9252616 27.9775942 33.9850523 27.6078988 33.793722 27.4290139 32.980568 27.0354672 33.0164424 26.9996902 32.5859492 26.2722251 32.1554559"></polyline>
            <polyline id="Path" stroke="#107449" stroke-width="1.25" stroke-linecap="round" stroke-linejoin="round" points="60.3438307 38.0508221 59.7117707 38.9237668 58.9843057 39.3662183 58.4595767 39.3781764 58.411874 39.019432 57.958699 38.8041853 57.4220444 39.3781764 57.0284977 39.4020927 57.0284977 38.9955157 56.6349509 38.9955157 56.0625193 37.9551569 56.0505937 37.9551569 55.4066082 37.5246637 54.6910687 37.6920778 53.9039752 37.4887893 53.1168817 40.2989537 52.3536397 39.2705531 52.1389778 39.5814648 51.8050593 39.3662183 51.4949923 39.593423 51.2087765 39.3542601 50.8987093 39.6053812 50.8510068 40.0120778 50.0877646 40.5261584 49.8134744 40.2391629 48.7401652 40.4424514 48.048477 40.0120778 48.048477 39.6053812 48.5493547 38.9835576 48.608983 38.2421525 48.3943211 37.9192825 47.3448632 37.5246637 46.4385132 35.7189836 45.6394941 36.5201793 45.0670625 36.0298953 44.6854414 36.2571002 43.826794 36.2331838 43.0516262 35.3841554"></polyline>
            <polyline id="Path" stroke="#107449" stroke-width="1.25" stroke-linecap="round" stroke-linejoin="round" points="54.9653588 55.5455904 54.4287042 55.7130045 54.1663397 55.4140508 54.3332989 55.0074738 54.6910687 54.7085202 55.2873516 55.0672646 54.9653588 55.5455904"></polyline>
            <polyline id="Path" stroke="#107449" stroke-width="1.25" stroke-linecap="round" stroke-linejoin="round" points="65.8773361 28.7473842 65.6030459 28.0418535 65.2214249 28.0657698 65.1617966 26.8460388 64.1481157 26.1763827 64.0169334 26.2600897 62.8959215 25.3751868 62.2042333 25.6741405 61.5483222 25.1838565 60.7970057 25.3991032 59.8548787 24.8251121 58.7696437 25.6023917 58.8054207 25.793722 58.4953537 26.2242152 58.1137326 26.1763827 57.8394424 26.4992526 57.7917398 27.6233184 57.3862674 27.754858 57.088126 27.5156951 56.2056272 28.0418535 56.0505937 28.3766816"></polyline>
            <line x1="56.0505937" y1="28.3766816" x2="56.0505937" y2="28.3766816" id="Path" stroke="#107449" stroke-width="1.25" stroke-linecap="round" stroke-linejoin="round"></line>
            <line x1="56.0505937" y1="28.3766816" x2="56.0505937" y2="28.3766816" id="Path" stroke="#107449" stroke-width="1.25" stroke-linecap="round" stroke-linejoin="round"></line>
            <line x1="56.0505937" y1="28.3766816" x2="56.4202891" y2="28.1494768" id="Path" stroke="#107449" stroke-width="1.25" stroke-linecap="round" stroke-linejoin="round"></line>
            <polyline id="Path" stroke="#107449" stroke-width="1.25" stroke-linecap="round" stroke-linejoin="round" points="28.1326277 13.4768311 27.1905007 13.6920777 26.5465152 14.2541106 25.2466185 14.6248132 24.1136809 14.1464873 22.4440888 13.9551569 21.1680433 13.5127055 20.4525038 13.8236173 19.5938565 12.4125561 19.9277749 11.3602392 19.784667 10.9895366 18.914094 10.8938714 18.5801755 11.1330344 17.7096025 11.1928251 16.1831182 10.5710015 16.1592669 10.9536622 16.6005162 11.1928251 16.6720702 11.8505232 16.4097057 12.1255605 16.7555498 13.4887892 17.8884873 14.7204783 17.7096025 16.0717489 17.971967 16.4544096 17.900413 17.2556054 17.6022716 18.0209267 18.1627775 19.2765322 18.5086216 19.4559043 18.84254 19.2406577 18.7113577 19.6352765 17.7692307 19.7428998"></polyline>
            <polyline id="Path" stroke="#107449" stroke-width="1.25" stroke-linecap="round" stroke-linejoin="round" points="35.6934951 15.2227205 36.2301497 14.8759343 35.7531234 13.7518685 35.9439339 12.6756352 35.7531234 11.4917787 36.1585957 10.8699552 35.7054207 9.73393125 34.0239029 8.29895366 34.0239029 8.29895366"></polyline>
            <polyline id="Path" stroke="#107449" stroke-width="1.25" stroke-linecap="round" stroke-linejoin="round" points="34.0239029 8.29895366 34.0000517 8.33482808 32.5451213 9.35127058 29.5875581 10.0926757 27.6794527 11.1210762 26.904285 12.819133 27.1308725 13.1180867 28.3115127 13.3811659"></polyline>
            <polyline id="Path" stroke="#107449" stroke-width="1.25" stroke-linecap="round" stroke-linejoin="round" points="28.3115127 13.3811659 28.335364 13.3931241 28.1326277 13.4768311"></polyline>
            <polyline id="Path" stroke="#107449" stroke-width="1.25" stroke-linecap="round" stroke-linejoin="round" points="28.3115127 13.3811659 28.1326277 13.4648729 28.1326277 13.4768311"></polyline>
            <polyline id="Path" stroke="#107449" stroke-width="1.25" stroke-linecap="round" stroke-linejoin="round" points="17.7692307 19.7428998 16.2188952 19.7428998 16.2546722 18.9895366 15.8253485 19.0852018 15.2886938 19.5994021 15.6345379 20.3527653 15.3244708 20.1016442 15.0859577 19.5037369 14.7043366 19.5037369 14.7043366 19.754858 14.1557563 19.8026906 14.0245741 19.3841554 13.6191017 19.5754858 13.4759938 19.2286996 12.9989675 19.264574 11.5559628 20.4603887 11.4367062 19.9701047 10.9000517 19.6233184 10.888126 19.2047832 10.2799174 18.1524663 9.88637067 18.0687593 9.96985025 17.6860987 9.56437792 17.7339312 9.33779042 18.1285501 9.51667525 17.2436472 8.88461542 17.6741405 8.81306142 17.1958147 7.63242127 17.6860987 7.44161074 17.3632287 6.83340217 17.8535127 6.78569953 18.6786248 6.35637584 18.7503737 5.70046463 18.3437967 5.31884357 18.4275037 5.23536397 18.8819133 4.93722251 18.5231689 4.72256066 18.9536622 4.710635 18.0807175 2.77867837 18.6666667 2.57594217 18.3079222 1.21641714 19.0493273 1.56226123 19.2286996 0.441249355 19.1091181 0.190810532 19.4319881 0 20.6397608 0.238513165 20.9506727 0.60820857 20.7952167 0.954052658 20.9626308 2.59979349 20.4723467 2.09891585 20.7115097 2.0273619 21.1659192 2.826381 20.9745889 2.76675271 21.3572497 3.16029943 21.5246637 2.74290139 21.6083707 3.58962312 21.9671151 2.79060402 21.7757847 2.59979349 21.4409567 2.09891585 21.5844544 1.32374807 21.4289985 1.09716056 21.1061286 0.894424367 21.5964126 1.21641714 22.3019432 1.45493031 21.9312407 1.82462571 21.9671151 2.55209086 22.3856502 2.67134744 22.8161435 2.4566856 23.1509716 2.13469283 22.9715994 0.441249355 23.1390134 0.238513165 23.4738416 1.51455859 23.9521674 2.01543624 24.7892377 1.87232834 25.5306427 2.85023232 25.6143497 3.33918431 25.0523169 3.33918431 25.0044843"></polyline>
            <polyline id="Path" stroke="#107449" stroke-width="1.25" stroke-linecap="round" stroke-linejoin="round" points="3.33918431 25.0044843 3.73273103 25.2675635 4.35286526 25.0403587 4.98492514 25.8415546 5.36654621 25.7578475 5.36654621 25.3751868 5.41424884 25.7458894 5.41424884 25.7578475 5.76009293 25.6263079 5.67661332 26.0089686 6.05823438 26.0926757 6.57103768 25.8893872 6.594889 25.4828102 6.69029427 26.5112108 7.0242127 26.7264574 7.39390811 26.5470852 7.39390811 26.5351271 7.33427982 25.7578475 7.40583377 26.1644245 7.79938048 26.2361734 7.51316469 26.5231689 7.71590088 26.8819133 8.20485287 27.0852018 8.56262258 26.9297459 8.22870418 27.0971599 8.27640682 27.4678625 8.56262258 27.8505232 8.45529167 28.3408072 8.7415075 28.651719 8.58647392 28.2690583 8.94424367 27.9461883 9.37356733 27.8505232 9.69556017 28.0896861 9.52860092 27.3004484 9.945999 27.9581465 10.1487352 27.6113603 10.6376872 27.6950672 10.9239029 28.0179372 10.6615385 28.3527653 9.81481675 28.245142 10.4588022 28.7473842 12.1164688 28.6158446 12.4861642 28.819133 12.0806917 28.8430493 12.2953537 29.1898356"></polyline>
            <polyline id="Path" stroke="#107449" stroke-width="1.25" stroke-linecap="round" stroke-linejoin="round" points="20.4405783 20.819133 20.4286526 22.4454409 20.2259163 22.7563527 20.4763552 25.0881913 19.7369644 25.387145 19.2599381 26.5470852 19.2003098 26.8340807 18.2820341 26.3557548 17.0775426 26.8819133 16.8628808 27.264574 15.109809 27.3243647 14.4061952 27.7787742 14.3584925 28.5799701 12.2953537 29.1898356"></polyline>
            <polyline id="Path" stroke="#107449" stroke-width="1.25" stroke-linecap="round" stroke-linejoin="round" points="3.37496128 24.5859492 3.61347444 24.5500747 3.42266392 24.1674141 3.37496128 24.5859492"></polyline>
            <polyline id="Path" stroke="#107449" stroke-width="1.25" stroke-linecap="round" stroke-linejoin="round" points="49.2291172 9.12406575 49.3364481 9.88938717 49.1575632 10.3557548 49.3364481 10.77429 48.6686112 11.7428998 48.2989158 11.7787742 48.3346928 13.7040358 48.2154362 14.0747384 47.4879711 13.8236173 46.4265875 14.3617339 46.2596282 14.7204783 46.688952 15.8086697 45.9614868 16.1076233 46.1761487 16.4304933 46.0568921 16.8011958 46.3908105 16.9686098 45.3771296 18.3318386"></polyline>
            <line x1="3.33918431" y1="25.0044843" x2="3.37496128" y2="24.5859492" id="Path" stroke="#107449" stroke-width="1.25" stroke-linecap="round" stroke-linejoin="round"></line>
            <polyline id="Path" stroke="#107449" stroke-width="1.25" stroke-linecap="round" stroke-linejoin="round" points="13.189778 32.7294469 12.9393392 33.0284006 13.7502839 33.8176382 13.7264327 33.387145 13.3209602 33.1479821 13.189778 32.7294469"></polyline>
            <polyline id="Path" stroke="#107449" stroke-width="1.25" stroke-linecap="round" stroke-linejoin="round" points="12.2953537 29.1898356 11.6990708 29.7757847 12.0210635 30.6008968 12.8320083 30.7443946 13.1062984 31.0074738 13.7622096 30.5171898 14.7281879 30.4334828 13.8218379 30.7802691 13.7383582 31.6771301 13.3328859 31.8445441 14.131905 32.1315396 14.7758906 32.8011958 13.7264327 33.9133034 13.7860609 34.5112107 15.1813629 36.1494768 15.4556531 37.0941704 16.540888 38.0029895 17.1848735 38.1464873 17.3876097 38.6248132 18.1985545 38.7802691 18.8186887 39.2944693 18.914094 38.9237668 19.295715 38.9835576"></polyline>
            <polyline id="Path" stroke="#107449" stroke-width="1.25" stroke-linecap="round" stroke-linejoin="round" points="8.81306142 30.0508221 8.13329892 29.5964126 7.75167785 29.6442452 7.87093443 30.0866966 8.28833247 30.2182362 8.81306142 30.0508221"></polyline>
            <polyline id="Path" stroke="#107449" stroke-width="1.25" stroke-linecap="round" stroke-linejoin="round" points="17.3756841 39.6532137 17.0417656 39.3662183 17.0536913 39.3901345"></polyline>
            <polyline id="Path" stroke="#107449" stroke-width="1.25" stroke-linecap="round" stroke-linejoin="round" points="17.0536913 39.3901345 17.0179143 39.3662182 17.1729478 39.7249627 17.2683531 39.6890882"></polyline>
            <polyline id="Path" stroke="#107449" stroke-width="1.25" stroke-linecap="round" stroke-linejoin="round" points="34.5724832 17.6143497 34.3339701 16.8251121 34.6559628 16.490284 35.1687662 16.490284 35.6934951 15.2227205"></polyline>
            <polyline id="Path" stroke="#107449" stroke-width="1.25" stroke-linecap="round" stroke-linejoin="round" points="30.637016 23.7369207 30.6250903 23.7369207 30.4819824 22.7324365 31.4956634 22.038864 31.4241094 21.4289985 31.4479607 20.819133 30.8159009 20.2331838 30.7920496 19.8026906 31.1140423 19.4559043 31.9130614 19.3124066 32.6286009 18.8819133 33.010222 19.0971599 33.8092411 18.9177877 33.7734641 18.5470852 34.5724832 17.6143497"></polyline>
            <polyline id="Path" stroke="#107449" stroke-width="1.25" stroke-linecap="round" stroke-linejoin="round" points="30.637016 23.7369207 30.6250903 23.7369207 30.2076923 23.6412556 29.7783686 23.1748879 29.3967476 23.3064275 28.4307693 22.6367713 28.2161074 21.5127055 27.846412 21.309417 26.379556 22.0866966 25.9740837 22.0747384 25.9740837 21.6801196 25.5447599 21.4768311 25.2823954 20.6636772 24.9127001 20.6278027 24.8172948 20.9985052 23.6008777 20.9985052 22.6945276 21.4409567 22.3606092 21.2137518 22.0386164 21.4289985 21.5973671 20.9267563 20.4405783 20.819133"></polyline>
            <polyline id="Path" stroke="#107449" stroke-width="1.25" stroke-linecap="round" stroke-linejoin="round" points="26.2722251 32.1554559 26.2722251 32.1434978 27.0354672 30.0866966 27.2620547 28.8430493 27.3693857 28.5201793 28.1803304 28.8669656 28.1207021 28.4245142 28.4903975 28.4603887 29.5160042 27.8624813 29.5994837 27.3841554 30.0288074 27.2526158 30.8636035 25.8176383 30.8159009 25.0762332 30.5773877 24.7772795 30.8516778 24.5022422 30.8516778 24.490284 30.9113062 24.2511211 30.637016 23.7369208"></polyline>
            <polyline id="Path" stroke="#107449" stroke-width="1.25" stroke-linecap="round" stroke-linejoin="round" points="17.7692307 19.7428998 18.4012907 21.0224215 18.7590604 21.142003 19.7131131 20.5082212 20.4405782 20.819133"></polyline>
            <polyline id="Path" stroke="#107449" stroke-width="1.25" stroke-linecap="round" stroke-linejoin="round" points="26.2722251 32.1554559 25.3778007 32.9566517 25.0796592 32.6457399 23.7797625 32.6696562 23.0284461 32.7772795 22.5394941 33.4230194 20.8937532 33.5306427 21.1918947 34.2959642 21.7643262 34.8460388 22.3963862 37.2496263 22.3606092 38.2541106 22.6945276 38.5171898 21.4781105 39.1150972 21.1680433 38.8759342 20.2974703 38.9118087 20.4763552 38.5171898 19.295715 38.9835576"></polyline>
            <polyline id="Path" stroke="#107449" stroke-width="1.25" stroke-linecap="round" stroke-linejoin="round" points="17.3756841 39.6532137 17.3756841 39.6532137 17.3637584 39.6651719"></polyline>
            <polyline id="Path" stroke="#107449" stroke-width="1.25" stroke-linecap="round" stroke-linejoin="round" points="17.3637584 39.6651719 17.3518327 39.6532137 17.3756841 39.6532137"></polyline>
            <line x1="17.2683531" y1="39.6890882" x2="17.3518327" y2="39.6651719" id="Path" stroke="#107449" stroke-width="1.25" stroke-linecap="round" stroke-linejoin="round"></line>
            <line x1="17.3518328" y1="39.6651719" x2="17.3637584" y2="39.6651719" id="Path" stroke="#107449" stroke-width="1.25" stroke-linecap="round" stroke-linejoin="round"></line>
            <polyline id="Path" stroke="#107449" stroke-width="1.25" stroke-linecap="round" stroke-linejoin="round" points="17.2683531 39.6890882 17.1848735 39.7249627 17.0536912 39.3901345"></polyline>
            <polyline id="Path" stroke="#107449" stroke-width="1.25" stroke-linecap="round" stroke-linejoin="round" points="17.3637584 39.6651719 17.9600413 40.2032885 18.353588 40.0358744 17.6261228 39.5695067 17.3756841 39.6532137"></polyline>
            <line x1="17.0536913" y1="39.3901345" x2="17.3518328" y2="39.6651719" id="Path" stroke="#107449" stroke-width="1.25" stroke-linecap="round" stroke-linejoin="round"></line>
            <polyline id="Path" stroke="#107449" stroke-width="1.25" stroke-linecap="round" stroke-linejoin="round" points="37.5061952 50.4394619 36.5998451 50.4156652 35.8962312 50.7744096 34.9898813 49.961136 33.916572 50.0569207 33.8211668 50.7384156 33.6303563 51.4559043 33.0221477 51.8863976 33.1175529 52.3647235 32.3066082 52.819133 31.6745483 53.6801196 31.2213733 54.1106128 31.579143 55.3303438 30.5773878 55.593423 30.5773878 55.9880418 30.8993805 56.1793722 30.3030976 56.9088192 30.4819824 57.2795217 30.1003614 57.2436472 29.6233351 57.877429 29.2655653 58.0568012 28.1207021 57.9252616 27.4409396 58.3080418 26.3318534 58.2123767 26.1410428 58.5472047 25.6401652 58.4633782 25.6401652 58.4753363 25.6043882 58.857997 25.2704698 59.0373692 25.1750645 58.6309118 23.9347961 59.0014947 23.9944243 59.8505232 23.4219927 61.3452915 23.6366546 61.7040358 24.5191533 61.7518685 24.5191533 61.7518685 24.8530718 62.529148 24.6622613 62.8998505 25.0438823 62.8998505 25.1154363 63.8804185 24.7576665 64.0717489 24.8649974 64.4783258 23.7797625 65.7220927 23.8393908 66.1165919 23.3862158 66.2242152 23.1715539 66.6068759 23.0045947 67.7549776 23.0045947 67.7668162"></polyline>
            <polyline id="Path" stroke="#107449" stroke-width="1.25" stroke-linecap="round" stroke-linejoin="round" points="17.8884873 41.2795217 17.6618998 41.6502243 18.5205472 43.1569507 18.6994321 42.7264574 18.5801755 41.7339312 17.8884873 41.2795217"></polyline>
            <polyline id="Path" stroke="#107449" stroke-width="1.25" stroke-linecap="round" stroke-linejoin="round" points="19.295715 38.9835576 18.6875064 40.2750373 19.0810532 40.3946188 19.6296334 41.470852 19.2599381 41.5306427 19.4745999 42.2481315 19.0810532 43.0254111 18.4489933 43.4559043 18.6159525 44.0418535 19.6654104 44.6995516 21.0607124 46.1943199 21.3469283 47.1988042 21.3469283 47.2107623 21.4184822 47.5695067 21.1322664 48.0240358 20.798348 46.9715994 19.367269 45.5605381 19.2360867 45.1898356 18.84254 45.9551569 18.0196696 52.6995516 18.5443986 51.6472347 19.1406815 52.3408072 19.1764584 52.7234678 18.3178111 52.6038864 17.8884873 53.5247832 17.900413 54.1584454 16.4335571 60.8790433 15.9207537 61.8356951 15.9088281 61.8356951 15.3006195 62.6846039 14.4538977 63.3064275"></polyline>
            <polyline id="Path" stroke="#107449" stroke-width="1.25" stroke-linecap="round" stroke-linejoin="round" points="45.3771296 18.3318386 44.1249355 17.5306427 43.6002065 16.9686098 43.6836861 16.5859492 43.4570986 16.2511211 43.0993288 16.1554559 42.014094 16.5500747 41.6801755 16.3348281 41.4058854 16.6337818 40.4876097 16.490284 39.0326794 15.6412556 38.7345379 15.8565022 37.5061952 15.5575486 36.6594734 15.8086697 35.9081569 15.6532137 35.6934951 15.2227205"></polyline>
            <polyline id="Path" stroke="#107449" stroke-width="1.25" stroke-linecap="round" stroke-linejoin="round" points="39.9032524 0 37.720857 0.550074738 35.8843057 1.12406577 35.1091378 1.79372197 35.1091378 4.20926757 35.5026846 4.67563527 35.1329892 4.44843049 35.0375839 5.23766816 35.0972122 5.75186846 35.4072793 5.9671151 34.9064017 6.15844544 34.858699 6.56502242 35.2641714 7.3064275 34.894476 7.10313902 34.0239029 8.29895366"></polyline>
            <polyline id="Path" stroke="#107449" stroke-width="1.25" stroke-linecap="round" stroke-linejoin="round" points="64.13619 48.6696562 64.13619 48.6696562 63.3252452 48.8251121 63.0509551 49.0881913 62.0134228 48.6219432 61.8106867 49.1360239 62.0372742 49.6981764 62.6216314 50.1167115 62.5739287 50.9058296 62.1684564 50.7503737 60.4750129 51.264574 60.3557563 51.6472347 59.6163655 51.8146488 59.4851832 52.2212258 59.4374807 52.6756352 58.6742385 52.7234678 58.3403201 53.632287 58.7338668 53.9312407 58.3999483 54.2660687 57.8513681 54.0747384 57.4101187 54.7563527 57.6128549 55.1150972 58.9485287 55.8804185 58.9246773 56.5143199 58.7934951 56.5382362 58.483428 56.5500747 57.9109964 57.1959343 57.2073826 56.8849028 57.1954569 56.5022422 55.9432627 56.3947384 55.8836345 55.6174589 55.5497161 55.9164126 55.2277232 55.7249627 54.0590087 56.2511211 53.5819824 55.6772497 52.8068147 55.5814648 52.8187403 56.0717489"></polyline>
            <polyline id="Path" stroke="#107449" stroke-width="1.25" stroke-linecap="round" stroke-linejoin="round" points="56.4322147 62.5052317 56.1340733 63.0074738 55.7047496 63.1629297 55.0965411 62.5889387 55.168095 62.1346487 55.7047496 62.1346487 55.9909654 62.6846039 56.4322147 62.5052317"></polyline>
            <polyline id="Path" stroke="#107449" stroke-width="1.25" stroke-linecap="round" stroke-linejoin="round" points="3.37496128 24.5859492 3.23185338 24.6098655 3.33918431 24.9925262 3.33918431 25.0044843"></polyline>
            <polyline id="Path" stroke="#107449" stroke-width="1.25" stroke-linecap="round" stroke-linejoin="round" points="50.493237 62.8400597 52.4132679 62.8998505 52.6756324 63.2346786 52.6160042 63.6053812 53.1049561 63.7249627 54.4048528 63.5696263 54.1067114 63.2585949 54.2736706 62.9237668 54.643366 62.9596412 55.2635002 63.6892077 57.0284977 63.4857997 57.5532267 64.6696562 58.8531234 64.9925262 59.2228188 64.8729447 59.2466701 64.896861 60.0695405 65.3751868 60.0218379 65.7458894 61.2144037 65.3991032 62.0134228 65.6143497 62.1684564 65.9970105 62.4427465 65.2556054 63.4325762 65.423139 63.4445018 65.0403587 64.1958183 64.8729447 64.553588 64.5381166 65.0663913 64.5860687 65.3645327 63.8565022 64.8875064 63.6412556 65.7103768 62.5531838 66.437842 62.4573991 67.0221992 61.4171599 67.7854414 61.0584156 67.9285493 60.4962631 69.8605059 59.4440657"></polyline>
            <polyline id="Path" stroke="#107449" stroke-width="1.25" stroke-linecap="round" stroke-linejoin="round" points="52.8187403 56.0717489 52.0077956 55.6174589 51.6381002 55.6174589 51.3041818 55.9164126 51.2803304 55.4978774 50.3382034 56.083707 49.3006712 55.4140508 48.3585442 53.5007474 48.084254 52.2810164 46.8797625 51.2527354 46.4981414 51.2167414 46.4742902 51.5994021 45.6156428 51.4321076 45.4129066 50.6666667 45.1147651 50.4394619 44.0772328 51.3363228 43.8387197 51.0373692 42.9085183 53.1660388 42.5626743 52.4843049 42.6342282 52.0777279 42.3122354 51.8624813 42.1452762 51.3004484 41.4416623 50.7623318 40.8096025 51.3363228 40.4041301 52.5440957 39.8913268 53.2017937 39.0446051 52.9866667 38.3529169 53.4170403 37.9116675 52.7475037 38.1501807 51.9820627 37.6373774 51.1689088 37.5061952 50.4394619"></polyline>
            <polyline id="Path" stroke="#107449" stroke-width="1.25" stroke-linecap="round" stroke-linejoin="round" points="50.493237 62.8400597 51.0060402 62.0508221 51.7812081 61.8116592 51.6500258 61.4410762 52.2105317 60.7952167 52.6517811 60.9147982 52.9022199 59.4917787 54.0351575 58.2721674 53.1884357 57.4111808 53.1645844 56.6816143 52.8187403 56.0717489"></polyline>
            <polyline id="Path" stroke="#107449" stroke-width="1.25" stroke-linecap="round" stroke-linejoin="round" points="67.904698 67.671151 67.6661848 66.45142 67.2845638 66.3079222 66.9744967 66.5829597 67.0341249 68.9147982 65.8773361 68.735426 65.4122354 69.3931241 63.9692307 69.9672347 63.8618998 70.3497757 63.4802787 70.3857698 63.194063 70.7683109 63.22984 71.2346786 62.705111 71.9044544 62.6335571 72.2869955 62.9794012 72.1554559 63.4922044 72.7176083 62.7885906 73.2198505 62.9316985 73.961136 63.9930821 74.5590433 63.6353123 74.7744096 63.2417656 75.8983557 64.2077439 75.5516891 64.3389262 76.3289686 63.9811564 77.2735426 65.2452762 77.5247832 64.589365 77.9671151 64.5655137 78.3736921 65.2094992 78.9597608 66.7121322 79.4141704 66.8790914 79.7968311 67.2726381 79.9641256 68.0597316 77.9791928 67.6184822 77.9433184 67.9762519 77.6681614 68.2505421 76.9387145 68.1551368 75.7787742 68.1551368 74.9537817 68.882602 73.3512706 68.3697987 69.8594917 67.833144 69.1061286 67.904698 67.671151"></polyline>
        </g>
    </g>
</svg>