<?xml version="1.0" encoding="UTF-8"?>
<svg width="80px" height="80px" viewBox="0 0 80 80" version="1.1" xmlns="http://www.w3.org/2000/svg" xmlns:xlink="http://www.w3.org/1999/xlink">
    <title>Picto/2022/Actif</title>
    <g id="Picto/2022/Actif" stroke="none" stroke-width="1" fill="none" fill-rule="evenodd">
        <g id="2022">
            <circle id="Oval" fill="#F9F8F6" cx="40" cy="40" r="40"></circle>
            <path d="M40.94,31.04 L47.2,24.78 L40.96,18.56 L39.42,20.08 L43.04,23.7 L32.8,23.7 L32.8,25.88 L43.06,25.88 L39.42,29.52 L40.94,31.04 Z M26.98,54 L26.98,51.56 L20.6,51.56 L23.98,48.3 C25.36,46.96 26.62,45.48 26.62,43.56 C26.62,41.16 24.66,39.6 22.22,39.6 C19.78,39.6 18.04,40.8 16.86,42.72 L19.06,44.06 C19.8,42.82 20.62,42 21.96,42 C23.06,42 23.86,42.68 23.86,43.84 C23.86,44.98 23.18,45.74 22.1,46.84 L17.3,51.56 L17.3,54 L26.98,54 Z M34.14,54.4 C37.82,54.4 39.54,51.2 39.54,47 C39.54,42.8 37.82,39.6 34.14,39.6 C30.46,39.6 28.74,42.8 28.74,47 C28.74,51.2 30.46,54.4 34.14,54.4 Z M34.14,51.9 C32.36,51.9 31.5,49.96 31.5,47 C31.5,44.06 32.36,42.1 34.14,42.1 C35.9,42.1 36.76,44.04 36.76,47 C36.76,49.94 35.9,51.9 34.14,51.9 Z M50.94,54 L50.94,51.56 L44.56,51.56 L47.94,48.3 C49.32,46.96 50.58,45.48 50.58,43.56 C50.58,41.16 48.62,39.6 46.18,39.6 C43.74,39.6 42,40.8 40.82,42.72 L43.02,44.06 C43.76,42.82 44.58,42 45.92,42 C47.02,42 47.82,42.68 47.82,43.84 C47.82,44.98 47.14,45.74 46.06,46.84 L41.26,51.56 L41.26,54 L50.94,54 Z M62.7,54 L62.7,51.56 L56.32,51.56 L59.7,48.3 C61.08,46.96 62.34,45.48 62.34,43.56 C62.34,41.16 60.38,39.6 57.94,39.6 C55.5,39.6 53.76,40.8 52.58,42.72 L54.78,44.06 C55.52,42.82 56.34,42 57.68,42 C58.78,42 59.58,42.68 59.58,43.84 C59.58,44.98 58.9,45.74 57.82,46.84 L53.02,51.56 L53.02,54 L62.7,54 Z" id="→2022" fill="#107449" fill-rule="nonzero"></path>
        </g>
    </g>
</svg>