<?xml version="1.0" encoding="UTF-8"?>
<svg viewBox="0 0 263 153" version="1.1" xmlns="http://www.w3.org/2000/svg" xmlns:xlink="http://www.w3.org/1999/xlink">
    <title>MarqueMTFP</title>
    <g id="Desktop" stroke="none" stroke-width="1" fill="none" fill-rule="evenodd">
        <g id="Screen6" transform="translate(-510.000000, -2543.000000)" fill-rule="nonzero">
            <g id="MarqueMTFP" transform="translate(510.000000, 2543.000000)">
                <g id="devises" transform="translate(0.000000, 116.000000)" fill="#1E1E1E">
                    <path d="M49.5,31 C49.94,31 50.32,31.34 50.12,32.12 L48.1,32.66 C48.42,31.7 49.02,31 49.5,31 M50.62,34.28 L50.22,34.28 C49.72,34.88 49.16,35.36 48.62,35.36 C48.06,35.36 47.78,35.02 47.78,34.28 C47.78,33.98 47.82,33.66 47.88,33.38 L51.14,32.3 C51.78,30.78 51.02,30.12 50.12,30.12 C48.58,30.12 46.82,32.82 46.82,34.98 C46.82,36 47.3,36.56 48.06,36.56 C48.94,36.54 49.86,35.68 50.62,34.28 M50.1,29.4 L51.96,27.7 L51.96,27.46 L50.72,27.46 L49.62,29.4 L50.1,29.4 Z M43.14,31.04 L44.22,31.04 L42.5,35.76 C42.34,36.16 42.56,36.56 42.98,36.56 C44.2,36.56 45.66,35.52 46.22,34.04 L45.92,34.04 C45.48,34.66 44.52,35.34 43.8,35.46 L45.38,31.04 L47,31.04 L47.2,30.36 L45.62,30.36 L46.22,28.66 L45.6,28.66 L44.48,30.36 L43.14,30.54 L43.14,31.04 L43.14,31.04 Z M42.02,30.82 C42.16,30.38 41.86,30.14 41.64,30.14 C40.7,30.14 39.58,30.98 39.12,32.18 L39.42,32.18 C39.72,31.74 40.24,31.26 40.74,31.18 L38.94,35.88 C38.78,36.32 39.1,36.56 39.32,36.56 C40.22,36.56 41.26,35.7 41.72,34.52 L41.4,34.52 C41.1,34.96 40.58,35.44 40.08,35.52 L42.02,30.82 Z M42.2,28.94 C42.6,28.94 42.94,28.62 42.94,28.2 C42.94,27.8 42.6,27.46 42.2,27.46 C41.78,27.46 41.46,27.8 41.46,28.2 C41.46,28.6 41.8,28.94 42.2,28.94 M33.46,31.44 C33.74,31.44 33.9,31.88 33.46,32.84 L32.18,35.68 C31.94,36.22 32.2,36.56 32.72,36.56 C33.04,36.56 33.18,36.48 33.32,36.14 L34.58,32.82 C35.16,32.12 36.24,31.36 36.7,31.36 C37.04,31.36 37,31.64 36.78,32.06 L34.86,35.76 C34.68,36.12 34.92,36.56 35.34,36.56 C36.28,36.56 37.4,35.72 37.86,34.52 L37.56,34.52 C37.26,34.96 36.74,35.44 36.24,35.52 L37.9,32.18 C38.12,31.76 38.22,31.36 38.22,31.04 C38.22,30.5 37.92,30.14 37.34,30.14 C36.52,30.14 35.82,31.06 34.84,32.2 L34.84,31.32 C34.84,30.7 34.64,30.14 34.08,30.14 C33.42,30.14 32.82,31.16 32.36,32.18 L32.66,32.18 C32.94,31.7 33.22,31.44 33.46,31.44 M32.16,31.56 C32.38,30.8 32.26,30.12 31.68,30.12 C30.94,30.12 30.72,30.62 29.98,32.18 L29.98,31.3 C29.98,30.68 29.78,30.12 29.22,30.12 C28.56,30.12 27.96,31.14 27.5,32.16 L27.8,32.16 C28.12,31.7 28.42,31.42 28.66,31.42 C28.94,31.42 29.1,31.86 28.66,32.82 L27.38,35.66 C27.14,36.2 27.4,36.54 27.92,36.54 C28.24,36.54 28.38,36.46 28.52,36.12 L29.78,32.8 C30.14,32.36 30.46,31.98 30.86,31.56 L32.16,31.56 L32.16,31.56 Z M25.22,31 C25.66,31 26.04,31.34 25.84,32.12 L23.82,32.66 C24.14,31.7 24.74,31 25.22,31 M26.34,34.28 L25.94,34.28 C25.44,34.88 24.88,35.36 24.34,35.36 C23.78,35.36 23.5,35.02 23.5,34.28 C23.5,33.98 23.54,33.66 23.6,33.38 L26.86,32.3 C27.5,30.78 26.74,30.12 25.84,30.12 C24.3,30.12 22.54,32.82 22.54,34.98 C22.54,36 23.02,36.56 23.78,36.56 C24.66,36.54 25.58,35.68 26.34,34.28 M18.86,31.04 L19.94,31.04 L18.22,35.76 C18.06,36.16 18.28,36.56 18.7,36.56 C19.92,36.56 21.38,35.52 21.94,34.04 L21.64,34.04 C21.2,34.66 20.24,35.34 19.52,35.46 L21.1,31.04 L22.72,31.04 L22.92,30.36 L21.34,30.36 L21.94,28.66 L21.32,28.66 L20.2,30.36 L18.86,30.54 L18.86,31.04 L18.86,31.04 Z M13.14,34.7 C13.14,33.24 14.76,31.28 15.66,31.28 C15.86,31.28 16.06,31.3 16.22,31.36 L15.28,33.88 C14.74,34.54 13.9,35.34 13.5,35.34 C13.28,35.34 13.14,35.14 13.14,34.7 M18.1,29.86 L17.6,29.82 L17.04,30.38 L16.94,30.38 C14.56,30.38 12.02,33.34 12.02,35.66 C12.02,36.2 12.32,36.56 12.9,36.56 C13.6,36.56 14.28,35.56 15.04,34.5 L15,34.88 C14.9,35.96 15.24,36.56 15.8,36.56 C16.46,36.56 17.06,35.54 17.52,34.52 L17.22,34.52 C16.9,34.98 16.6,35.26 16.36,35.26 C16.12,35.26 15.94,34.82 16.36,33.86 L18.1,29.86 Z M13.02,31.56 C13.24,30.8 13.12,30.12 12.54,30.12 C11.8,30.12 11.58,30.62 10.84,32.18 L10.84,31.3 C10.84,30.68 10.64,30.12 10.08,30.12 C9.42,30.12 8.82,31.14 8.36,32.16 L8.66,32.16 C8.98,31.7 9.28,31.42 9.5,31.42 C9.78,31.42 9.94,31.86 9.5,32.82 L8.22,35.68 C7.98,36.22 8.24,36.56 8.76,36.56 C9.08,36.56 9.22,36.48 9.36,36.14 L10.62,32.82 C10.98,32.38 11.3,32 11.7,31.58 L13.02,31.58 L13.02,31.56 Z M4.66,36.32 L4.78,35.96 C3.2,35.66 3,35.66 3.64,33.96 L4.22,32.36 L5.48,32.36 C6.26,32.36 6.26,32.7 6.16,33.56 L6.6,33.56 L7.64,30.72 L7.2,30.72 C6.82,31.4 6.5,31.92 5.66,31.92 L4.4,31.92 L5.26,29.58 C5.56,28.74 5.7,28.58 6.78,28.58 L7.06,28.58 C8.16,28.58 8.28,28.88 8.28,30.04 L8.72,30.04 L9.08,28.1 L3.02,28.1 L2.9,28.46 C4.16,28.72 4.28,28.84 3.7,30.46 L2.4,33.94 C1.8,35.56 1.56,35.68 0.12,35.94 L0,36.32 L4.66,36.32 Z" id="Shape"></path>
                    <path d="M34.8,17.28 C35.24,17.28 35.62,17.62 35.42,18.38 L33.4,18.92 C33.74,17.98 34.34,17.28 34.8,17.28 M35.92,20.54 L35.52,20.54 C35.02,21.14 34.46,21.62 33.92,21.62 C33.36,21.62 33.08,21.28 33.08,20.54 C33.08,20.24 33.12,19.92 33.18,19.64 L36.46,18.56 C37.1,17.04 36.32,16.38 35.44,16.38 C33.9,16.38 32.14,19.08 32.14,21.24 C32.14,22.26 32.62,22.82 33.38,22.82 C34.26,22.82 35.18,21.96 35.92,20.54 M35.4,15.68 L37.26,13.98 L37.26,13.74 L36.02,13.74 L34.92,15.68 L35.4,15.68 Z M28.46,17.32 L29.54,17.32 L27.82,22.04 C27.66,22.44 27.88,22.84 28.3,22.84 C29.52,22.84 30.98,21.8 31.54,20.32 L31.24,20.32 C30.8,20.94 29.84,21.62 29.12,21.74 L30.7,17.32 L32.32,17.32 L32.52,16.64 L30.94,16.64 L31.54,14.94 L30.92,14.94 L29.8,16.64 L28.46,16.82 L28.46,17.32 L28.46,17.32 Z M27.34,17.08 C27.46,16.64 27.18,16.4 26.94,16.4 C26,16.4 24.88,17.26 24.42,18.44 L24.72,18.44 C25.02,18 25.54,17.52 26.04,17.44 L24.24,22.14 C24.08,22.58 24.4,22.82 24.62,22.82 C25.52,22.82 26.56,21.96 27.02,20.78 L26.72,20.78 C26.42,21.22 25.9,21.7 25.4,21.78 L27.34,17.08 Z M27.52,15.22 C27.92,15.22 28.26,14.88 28.26,14.48 C28.26,14.08 27.92,13.74 27.52,13.74 C27.1,13.74 26.78,14.08 26.78,14.48 C26.78,14.88 27.12,15.22 27.52,15.22 M21.74,21.78 L24.72,13.86 L24.62,13.74 L22.56,13.98 L22.56,14.22 L22.96,14.52 C23.32,14.8 23.2,15.06 22.88,15.94 L20.6,22.02 C20.42,22.38 20.66,22.82 21.08,22.82 C22.02,22.82 23.02,21.96 23.48,20.78 L23.18,20.78 C22.86,21.22 22.22,21.7 21.74,21.78 M15.64,20.98 C15.64,19.52 17.26,17.56 18.16,17.56 C18.36,17.56 18.54,17.58 18.72,17.64 L17.78,20.16 C17.24,20.82 16.4,21.62 16.02,21.62 C15.78,21.62 15.64,21.42 15.64,20.98 M20.6,16.14 L20.1,16.1 L19.54,16.66 L19.44,16.66 C17.06,16.66 14.52,19.62 14.52,21.94 C14.52,22.48 14.82,22.84 15.4,22.84 C16.1,22.84 16.78,21.84 17.54,20.78 L17.5,21.16 C17.4,22.24 17.74,22.84 18.3,22.84 C18.96,22.84 19.56,21.82 20.02,20.8 L19.72,20.8 C19.4,21.26 19.1,21.54 18.86,21.54 C18.62,21.54 18.44,21.1 18.86,20.14 L20.6,16.14 Z M9.06,23.98 C9.06,23.36 9.66,22.96 10.52,22.62 C10.8,22.76 11.22,22.92 11.8,23.1 C12.7,23.4 13.04,23.52 13.04,23.78 C13.04,24.36 12.22,24.8 10.72,24.8 C9.6,24.8 9.06,24.56 9.06,23.98 M11.52,20.16 C11.12,20.16 10.98,19.82 10.98,19.46 C10.98,18.3 11.54,16.86 12.44,16.86 C12.84,16.86 12.98,17.2 12.98,17.56 C12.96,18.74 12.4,20.16 11.52,20.16 M14.06,23.4 C14.06,22.64 13.38,22.38 12.28,22.04 C11.34,21.76 10.92,21.68 10.92,21.36 C10.92,21.12 11.12,20.82 11.52,20.6 C13.08,20.52 14.06,19.12 14.06,17.9 C14.06,17.68 14.02,17.48 13.96,17.3 L15.02,17.3 L15.22,16.62 L13.42,16.62 C13.18,16.46 12.88,16.38 12.54,16.38 C10.9,16.38 9.86,17.82 9.86,19.08 C9.86,19.9 10.34,20.46 11.08,20.56 C10.32,20.92 9.88,21.3 9.88,21.78 C9.88,22.06 9.98,22.26 10.22,22.42 C8.46,22.94 7.74,23.58 7.74,24.36 C7.74,25.18 8.82,25.52 10.08,25.52 C12.26,25.54 14.06,24.38 14.06,23.4 M5.94,18.62 C6.72,18.62 6.74,18.96 6.62,19.82 L7.06,19.82 L8.1,16.98 L7.66,16.98 C7.28,17.66 6.96,18.18 6.12,18.18 L4.4,18.18 L5.24,15.84 C5.54,15 5.68,14.84 6.76,14.84 L7.52,14.84 C8.62,14.84 8.74,15.14 8.74,16.3 L9.18,16.3 L9.54,14.36 L3.02,14.36 L2.9,14.72 C4.16,14.98 4.28,15.1 3.7,16.72 L2.4,20.22 C1.8,21.84 1.56,21.96 0.1,22.22 L0,22.6 L7.24,22.6 L8.54,20.54 L8.04,20.54 C7.2,21.36 6.36,22.12 4.72,22.12 C2.8,22.12 2.96,22.02 3.6,20.24 L4.2,18.64 L5.94,18.64 L5.94,18.62 Z M6.88,13.74 L8.74,12.4 L8.74,12.16 L7.5,12.16 L6.4,13.76 L6.88,13.76 L6.88,13.74 Z" id="Shape"></path>
                    <path d="M34.58,3.56 C35.02,3.56 35.4,3.9 35.2,4.66 L33.18,5.2 C33.5,4.26 34.1,3.56 34.58,3.56 M35.7,6.82 L35.3,6.82 C34.8,7.42 34.24,7.9 33.7,7.9 C33.14,7.9 32.86,7.56 32.86,6.82 C32.86,6.52 32.9,6.2 32.96,5.92 L36.22,4.84 C36.86,3.32 36.08,2.66 35.2,2.66 C33.66,2.66 31.9,5.36 31.9,7.52 C31.9,8.54 32.38,9.08 33.14,9.08 C34.02,9.1 34.94,8.24 35.7,6.82 M35.18,1.96 L37.04,0.26 L37.04,0.02 L35.8,0.02 L34.7,1.96 L35.18,1.96 Z M28.22,3.6 L29.3,3.6 L27.58,8.32 C27.42,8.72 27.64,9.12 28.06,9.12 C29.28,9.12 30.74,8.08 31.3,6.6 L31,6.6 C30.56,7.22 29.6,7.9 28.88,8.02 L30.46,3.6 L32.08,3.6 L32.28,2.92 L30.7,2.92 L31.3,1.22 L30.68,1.22 L29.56,2.92 L28.22,3.1 L28.22,3.6 L28.22,3.6 Z M27.66,4.12 C27.88,3.36 27.76,2.68 27.18,2.68 C26.44,2.68 26.22,3.18 25.48,4.74 L25.48,3.86 C25.48,3.24 25.28,2.68 24.72,2.68 C24.06,2.68 23.46,3.7 23,4.72 L23.3,4.72 C23.62,4.26 23.92,3.98 24.14,3.98 C24.42,3.98 24.58,4.42 24.14,5.38 L22.86,8.22 C22.62,8.76 22.88,9.1 23.4,9.1 C23.72,9.1 23.86,9.02 24,8.68 L25.26,5.36 C25.62,4.92 25.94,4.54 26.34,4.12 L27.66,4.12 Z M20.7,3.56 C21.14,3.56 21.52,3.9 21.32,4.66 L19.3,5.2 C19.64,4.26 20.22,3.56 20.7,3.56 M21.82,6.82 L21.42,6.82 C20.92,7.42 20.36,7.9 19.82,7.9 C19.26,7.9 18.98,7.56 18.98,6.82 C18.98,6.52 19.02,6.2 19.08,5.92 L22.34,4.84 C22.98,3.32 22.22,2.66 21.32,2.66 C19.78,2.66 18.02,5.36 18.02,7.52 C18.02,8.54 18.5,9.08 19.26,9.08 C20.14,9.1 21.06,8.24 21.82,6.82 M14.2,8.14 C13.88,8.14 13.42,7.84 13.42,7.58 C13.42,7.5 13.56,7.14 13.74,6.68 L14.26,5.28 C14.82,4.6 15.7,3.88 16.18,3.88 C16.48,3.88 16.7,4.06 16.7,4.5 C16.72,5.8 15.5,8.14 14.2,8.14 M17.84,4 C17.84,3.04 17.6,2.68 16.92,2.68 C16.08,2.68 15.3,3.58 14.52,4.66 L16.2,0.16 L16.1,0.02 L14.04,0.26 L14.04,0.5 L14.44,0.8 C14.8,1.08 14.68,1.36 14.36,2.22 L12.54,6.98 C12.38,7.38 12.2,7.86 12.2,7.98 C12.2,8.54 12.96,9.08 13.66,9.08 C15.22,9.1 17.84,6.22 17.84,4 M11.72,3.36 C11.84,2.92 11.56,2.68 11.32,2.68 C10.38,2.68 9.26,3.54 8.8,4.72 L9.1,4.72 C9.4,4.28 9.92,3.8 10.42,3.72 L8.62,8.42 C8.46,8.86 8.78,9.1 9.02,9.1 C9.92,9.1 10.96,8.24 11.42,7.06 L11.12,7.06 C10.82,7.5 10.3,7.98 9.8,8.06 L11.72,3.36 Z M11.92,1.48 C12.32,1.48 12.66,1.14 12.66,0.74 C12.66,0.34 12.32,0 11.92,0 C11.5,0 11.18,0.34 11.18,0.74 C11.18,1.16 11.5,1.48 11.92,1.48 M7.32,0.6 L3.02,0.6 L2.9,0.96 C4.16,1.22 4.28,1.34 3.7,2.96 L2.4,6.5 C1.8,8.12 1.56,8.24 0.12,8.5 L-1.77635684e-14,8.86 L6.54,8.86 L7.96,6.34 L7.46,6.34 C6.64,7.24 5.72,8.38 4.26,8.38 C3.16,8.38 3,8.18 3.62,6.5 L4.9,2.98 C5.5,1.36 5.74,1.24 7.2,0.98 L7.32,0.6 Z" id="Shape"></path>
                </g>
                <path d="M4.9,44 L4.9,34.04 L8.02,39.2 L10.02,39.2 L13.14,34.04 L13.14,44 L15.98,44 L15.98,30 L12.4,30 L9.02,35.76 L5.64,30 L2.06,30 L2.06,44 L4.9,44 Z M23.02,44 L23.02,30 L20.18,30 L20.18,44 L23.02,44 Z M30.08,44 L30.08,33.94 L36.34,44 L39.98,44 L39.98,30 L37.14,30 L37.14,40.02 L30.88,30 L27.24,30 L27.24,44 L30.08,44 Z M47.04,44 L47.04,30 L44.2,30 L44.2,44 L47.04,44 Z M55.2,44.4 C57.76,44.4 59.8,42.8 59.84,40.2 C59.84,35.46 53.44,36.04 53.44,33.54 C53.44,32.72 54.08,32.08 55.06,32.08 C56.12,32.08 57.04,32.76 57.86,33.82 L59.94,31.96 C58.76,30.54 57.14,29.6 55.04,29.6 C52.38,29.6 50.56,31.44 50.56,33.66 C50.56,38.32 56.96,37.76 56.96,40.26 C56.96,41.28 56.28,41.88 55.16,41.88 C54.02,41.88 52.9,41.24 52.06,40.16 L50,42.06 C51.24,43.54 52.84,44.4 55.2,44.4 Z M68.74,44 L68.74,32.58 L73.06,32.58 L73.06,30 L61.58,30 L61.58,32.58 L65.9,32.58 L65.9,44 L68.74,44 Z M81.28,28.8 L79.02,26.1 L76.1,26.1 L78.68,28.8 L81.28,28.8 Z M84.02,44 L84.02,41.58 L78.7,41.58 L78.7,38.08 L83.22,38.08 L83.22,35.66 L78.7,35.66 L78.7,32.42 L84.02,32.42 L84.02,30 L75.86,30 L75.86,44 L84.02,44 Z M90.46,44 L90.46,38.34 L91.92,38.34 L95.64,44 L99.04,44 L94.64,37.8 C96.06,37.12 96.88,35.86 96.88,34.18 C96.88,31.58 94.98,30 91.9,30 L87.62,30 L87.62,44 L90.46,44 Z M92.06,35.92 L90.46,35.92 L90.46,32.42 L92.06,32.42 C93.26,32.42 93.96,33.08 93.96,34.14 C93.96,35.28 93.26,35.92 92.06,35.92 Z M109.26,44 L109.26,41.58 L103.94,41.58 L103.94,38.08 L108.46,38.08 L108.46,35.66 L103.94,35.66 L103.94,32.42 L109.26,32.42 L109.26,30 L101.1,30 L101.1,44 L109.26,44 Z M7.56,65 C12,65 15,61.78 15,58 C15,54.22 12,51 7.56,51 L2.06,51 L2.06,65 L7.56,65 Z M7.6,62.42 L4.9,62.42 L4.9,53.58 L7.6,53.58 C10.2,53.58 12.08,55.5 12.08,58 C12.08,60.48 10.2,62.42 7.6,62.42 Z M26.2,65 L26.2,62.58 L20.88,62.58 L20.88,59.08 L25.4,59.08 L25.4,56.66 L20.88,56.66 L20.88,53.42 L26.2,53.42 L26.2,51 L18.04,51 L18.04,65 L26.2,65 Z M43.46,65 L43.46,62.42 L38.14,62.42 L38.14,51 L35.3,51 L35.3,65 L43.46,65 Z M48.12,65 L49.46,61.36 L55.06,61.36 L56.4,65 L59.42,65 L54.12,51 L50.4,51 L45.1,65 L48.12,65 Z M54.18,58.94 L50.34,58.94 L52.26,53.68 L54.18,58.94 Z M73.1,65 L73.1,53.58 L77.42,53.58 L77.42,51 L65.94,51 L65.94,53.58 L70.26,53.58 L70.26,65 L73.1,65 Z M83.06,65 L83.06,59.34 L84.52,59.34 L88.24,65 L91.64,65 L87.24,58.8 C88.66,58.12 89.48,56.86 89.48,55.18 C89.48,52.58 87.58,51 84.5,51 L80.22,51 L80.22,65 L83.06,65 Z M84.66,56.92 L83.06,56.92 L83.06,53.42 L84.66,53.42 C85.86,53.42 86.56,54.08 86.56,55.14 C86.56,56.28 85.86,56.92 84.66,56.92 Z M95.56,65 L96.9,61.36 L102.5,61.36 L103.84,65 L106.86,65 L101.56,51 L97.84,51 L92.54,65 L95.56,65 Z M101.62,58.94 L97.78,58.94 L99.7,53.68 L101.62,58.94 Z M112.16,65 L112.16,54.94 L118.42,65 L122.06,65 L122.06,51 L119.22,51 L119.22,61.02 L112.96,51 L109.32,51 L109.32,65 L112.16,65 Z M130.22,65.4 C132.78,65.4 134.82,63.8 134.86,61.2 C134.86,56.46 128.46,57.04 128.46,54.54 C128.46,53.72 129.1,53.08 130.08,53.08 C131.14,53.08 132.06,53.76 132.88,54.82 L134.96,52.96 C133.78,51.54 132.16,50.6 130.06,50.6 C127.4,50.6 125.58,52.44 125.58,54.66 C125.58,59.32 131.98,58.76 131.98,61.26 C131.98,62.28 131.3,62.88 130.18,62.88 C129.04,62.88 127.92,62.24 127.08,61.16 L125.02,63.06 C126.26,64.54 127.86,65.4 130.22,65.4 Z M140.98,65 L140.98,59.08 L145.5,59.08 L145.5,56.66 L140.98,56.66 L140.98,53.42 L146.3,53.42 L146.3,51 L138.14,51 L138.14,65 L140.98,65 Z M155.3,65.4 C159.7,65.4 162.72,62 162.72,58 C162.72,54 159.7,50.6 155.3,50.6 C150.88,50.6 147.86,54 147.86,58 C147.86,62 150.88,65.4 155.3,65.4 Z M155.3,62.74 C152.66,62.74 150.78,60.68 150.78,58 C150.78,55.32 152.66,53.26 155.3,53.26 C157.92,53.26 159.8,55.32 159.8,58 C159.8,60.68 157.92,62.74 155.3,62.74 Z M168.58,65 L168.58,59.34 L170.04,59.34 L173.76,65 L177.16,65 L172.76,58.8 C174.18,58.12 175,56.86 175,55.18 C175,52.58 173.1,51 170.02,51 L165.74,51 L165.74,65 L168.58,65 Z M170.18,56.92 L168.58,56.92 L168.58,53.42 L170.18,53.42 C171.38,53.42 172.08,54.08 172.08,55.14 C172.08,56.28 171.38,56.92 170.18,56.92 Z M182.06,65 L182.06,55.04 L185.18,60.2 L187.18,60.2 L190.3,55.04 L190.3,65 L193.14,65 L193.14,51 L189.56,51 L186.18,56.76 L182.8,51 L179.22,51 L179.22,65 L182.06,65 Z M198.6,65 L199.94,61.36 L205.54,61.36 L206.88,65 L209.9,65 L204.6,51 L200.88,51 L195.58,65 L198.6,65 Z M204.66,58.94 L200.82,58.94 L202.74,53.68 L204.66,58.94 Z M216.68,65 L216.68,53.58 L221,53.58 L221,51 L209.52,51 L209.52,53.58 L213.84,53.58 L213.84,65 L216.68,65 Z M226.64,65 L226.64,51 L223.8,51 L223.8,65 L226.64,65 Z M237.1,65.4 C241.5,65.4 244.52,62 244.52,58 C244.52,54 241.5,50.6 237.1,50.6 C232.68,50.6 229.66,54 229.66,58 C229.66,62 232.68,65.4 237.1,65.4 Z M237.1,62.74 C234.46,62.74 232.58,60.68 232.58,58 C232.58,55.32 234.46,53.26 237.1,53.26 C239.72,53.26 241.6,55.32 241.6,58 C241.6,60.68 239.72,62.74 237.1,62.74 Z M250.38,65 L250.38,54.94 L256.64,65 L260.28,65 L260.28,51 L257.44,51 L257.44,61.02 L251.18,51 L247.54,51 L247.54,65 L250.38,65 Z M10.22,86 L10.22,83.58 L4.9,83.58 L4.9,80.08 L9.42,80.08 L9.42,77.66 L4.9,77.66 L4.9,74.42 L10.22,74.42 L10.22,72 L2.06,72 L2.06,86 L10.22,86 Z M19.84,86 L19.84,74.58 L24.16,74.58 L24.16,72 L12.68,72 L12.68,74.58 L17,74.58 L17,86 L19.84,86 Z M37.96,86 C42.4,86 45.4,82.78 45.4,79 C45.4,75.22 42.4,72 37.96,72 L32.46,72 L32.46,86 L37.96,86 Z M38,83.42 L35.3,83.42 L35.3,74.58 L38,74.58 C40.6,74.58 42.48,76.5 42.48,79 C42.48,81.48 40.6,83.42 38,83.42 Z M56.6,86 L56.6,83.58 L51.28,83.58 L51.28,80.08 L55.8,80.08 L55.8,77.66 L51.28,77.66 L51.28,74.42 L56.6,74.42 L56.6,72 L48.44,72 L48.44,86 L56.6,86 Z M73.86,86 L73.86,83.42 L68.54,83.42 L68.54,72 L65.7,72 L65.7,86 L73.86,86 Z M78.52,86 L79.86,82.36 L85.46,82.36 L86.8,86 L89.82,86 L84.52,72 L80.8,72 L75.5,86 L78.52,86 Z M84.58,79.94 L80.74,79.94 L82.66,74.68 L84.58,79.94 Z M100.62,86 L100.62,80.08 L105.14,80.08 L105.14,77.66 L100.62,77.66 L100.62,74.42 L105.94,74.42 L105.94,72 L97.78,72 L97.78,86 L100.62,86 Z M114.94,86.4 C119.34,86.4 122.36,83 122.36,79 C122.36,75 119.34,71.6 114.94,71.6 C110.52,71.6 107.5,75 107.5,79 C107.5,83 110.52,86.4 114.94,86.4 Z M114.94,83.74 C112.3,83.74 110.42,81.68 110.42,79 C110.42,76.32 112.3,74.26 114.94,74.26 C117.56,74.26 119.44,76.32 119.44,79 C119.44,81.68 117.56,83.74 114.94,83.74 Z M128.22,86 L128.22,75.94 L134.48,86 L138.12,86 L138.12,72 L135.28,72 L135.28,82.02 L129.02,72 L125.38,72 L125.38,86 L128.22,86 Z M148.58,86.4 C151.12,86.4 153.2,85.28 154.48,83.54 L152.24,81.82 C151.44,82.96 150.18,83.74 148.58,83.74 C145.94,83.74 144.06,81.68 144.06,79 C144.06,76.32 145.94,74.26 148.58,74.26 C150.18,74.26 151.44,75.04 152.24,76.18 L154.48,74.44 C153.2,72.74 151.12,71.6 148.58,71.6 C144.16,71.6 141.14,75 141.14,79 C141.14,83 144.16,86.4 148.58,86.4 Z M162.96,86 L162.96,74.58 L167.28,74.58 L167.28,72 L155.8,72 L155.8,74.58 L160.12,74.58 L160.12,86 L162.96,86 Z M172.92,86 L172.92,72 L170.08,72 L170.08,86 L172.92,86 Z M183.38,86.4 C187.78,86.4 190.8,83 190.8,79 C190.8,75 187.78,71.6 183.38,71.6 C178.96,71.6 175.94,75 175.94,79 C175.94,83 178.96,86.4 183.38,86.4 Z M183.38,83.74 C180.74,83.74 178.86,81.68 178.86,79 C178.86,76.32 180.74,74.26 183.38,74.26 C186,74.26 187.88,76.32 187.88,79 C187.88,81.68 186,83.74 183.38,83.74 Z M196.66,86 L196.66,75.94 L202.92,86 L206.56,86 L206.56,72 L203.72,72 L203.72,82.02 L197.46,72 L193.82,72 L193.82,86 L196.66,86 Z M4.9,107 L4.9,101.34 L6.68,101.34 C9.76,101.34 11.64,99.76 11.64,97.18 C11.64,94.58 9.76,93 6.68,93 L2.06,93 L2.06,107 L4.9,107 Z M6.8,98.92 L4.9,98.92 L4.9,95.42 L6.8,95.42 C8,95.42 8.72,96.08 8.72,97.14 C8.72,98.28 8,98.92 6.8,98.92 Z M19.7,107.4 C23.22,107.4 25.38,105.2 25.38,101.52 L25.38,93 L22.54,93 L22.54,101.76 C22.54,103.64 21.46,104.74 19.72,104.74 C17.94,104.74 16.88,103.64 16.88,101.76 L16.88,93 L14.04,93 L14.04,101.52 C14.04,105.2 16.2,107.4 19.7,107.4 Z M33.48,107 C36.7,107 38.68,105.44 38.68,102.88 C38.68,101.42 37.86,100.22 36.38,99.56 C37.34,98.9 37.86,97.92 37.86,96.8 C37.86,94.44 36.1,93 33.18,93 L29.2,93 L29.2,107 L33.48,107 Z M33.24,98.48 L32.04,98.48 L32.04,95.42 L33.24,95.42 C34.32,95.42 34.94,96 34.94,96.94 C34.94,97.94 34.32,98.48 33.24,98.48 Z M33.64,104.58 L32.04,104.58 L32.04,100.92 L33.64,100.92 C34.96,100.92 35.76,101.56 35.76,102.72 C35.76,103.88 34.96,104.58 33.64,104.58 Z M50.04,107 L50.04,104.42 L44.72,104.42 L44.72,93 L41.88,93 L41.88,107 L50.04,107 Z M55.68,107 L55.68,93 L52.84,93 L52.84,107 L55.68,107 Z M74.1,110.48 C74.72,110.48 75.12,110.4 75.58,110.22 L75.58,107.82 C75.28,107.94 74.88,107.98 74.58,107.98 C73.68,107.98 72.72,107.62 71.64,106.64 L70.8,105.84 C72.52,104.48 73.56,102.34 73.56,100 C73.56,96 70.54,92.6 66.14,92.6 C61.72,92.6 58.7,96 58.7,100 C58.7,104 61.72,107.4 66.14,107.4 C66.82,107.4 67.46,107.32 68.06,107.16 L69.72,108.64 C71.1,109.84 72.54,110.48 74.1,110.48 Z M66.14,104.74 C63.5,104.74 61.62,102.68 61.62,100 C61.62,97.32 63.5,95.26 66.14,95.26 C68.76,95.26 70.64,97.32 70.64,100 C70.64,102.68 68.76,104.74 66.14,104.74 Z M82,107.4 C85.52,107.4 87.68,105.2 87.68,101.52 L87.68,93 L84.84,93 L84.84,101.76 C84.84,103.64 83.76,104.74 82.02,104.74 C80.24,104.74 79.18,103.64 79.18,101.76 L79.18,93 L76.34,93 L76.34,101.52 C76.34,105.2 78.5,107.4 82,107.4 Z M99.66,107 L99.66,104.58 L94.34,104.58 L94.34,101.08 L98.86,101.08 L98.86,98.66 L94.34,98.66 L94.34,95.42 L99.66,95.42 L99.66,93 L91.5,93 L91.5,107 L99.66,107 Z M107.2,107.4 C109.76,107.4 111.8,105.8 111.84,103.2 C111.84,98.46 105.44,99.04 105.44,96.54 C105.44,95.72 106.08,95.08 107.06,95.08 C108.12,95.08 109.04,95.76 109.86,96.82 L111.94,94.96 C110.76,93.54 109.14,92.6 107.04,92.6 C104.38,92.6 102.56,94.44 102.56,96.66 C102.56,101.32 108.96,100.76 108.96,103.26 C108.96,104.28 108.28,104.88 107.16,104.88 C106.02,104.88 104.9,104.24 104.06,103.16 L102,105.06 C103.24,106.54 104.84,107.4 107.2,107.4 Z" id="MINISTÈREDELATRANSFORMATIONETDELAFONCTIONPUBLIQUES" fill="#212121"></path>
                <g id="MARIANNE">
                    <path d="M17.8215548,17.4757282 C17.828033,17.4757282 17.8345112,17.4692557 17.8345112,17.4692557 C17.8863369,17.4433657 17.9381625,17.4110032 17.98351,17.3721683 C17.9770318,17.3721683 17.9705536,17.3721683 17.9640754,17.3656958 C17.9187279,17.3980583 17.8669022,17.4368932 17.8215548,17.4757282" id="Path" fill="#1F356C"></path>
                    <path d="M25.1460292,15.0491262 L25.0759673,15.1091262 C25.1160027,15.0991262 25.1460292,15.0891262 25.1460292,15.0491262" id="Path" fill="#1F356C"></path>
                    <path d="M22.8162544,17.5857605 C23.0300353,17.3721683 23.2438163,17.1456311 23.4575972,16.9126214 L23.451119,16.9126214 C23.852768,16.4595469 24.2414605,16.02589 24.7078916,15.631068 C24.8504122,15.5016181 24.9864547,15.3915858 25.1160188,15.3009709 C25.1548881,15.2621359 25.1548881,15.184466 25.1937574,15.1521036 C25.0058893,15.223301 24.8957597,15.3786408 24.7014134,15.4498382 C24.6625442,15.4498382 24.6236749,15.4110032 24.6625442,15.3721683 C24.7985866,15.2750809 24.934629,15.171521 25.0641932,15.0679612 C25.057715,15.0679612 25.0447585,15.0679612 25.0382803,15.0679612 C24.9994111,15.0679612 24.9994111,15.0291262 24.9994111,14.9902913 C24.5070671,14.9126214 24.131331,15.2556634 23.7944641,15.5533981 C23.7167256,15.592233 23.6454653,15.5145631 23.606596,15.5145631 C23.0429918,15.7022654 22.6283863,16.1941748 22.0647821,16.4142395 L22.0647821,16.3365696 C21.8380448,16.4142395 21.6177856,16.5501618 21.3845701,16.6019417 C21.0477032,16.6796117 20.7432273,16.6407767 20.4452297,16.6407767 C19.9852768,16.6860841 19.5318021,16.789644 19.0783274,16.8867314 C19.065371,16.8932039 19.0524146,16.8932039 19.0394582,16.8996764 C18.7932862,16.9644013 18.5665489,17.0550162 18.3398115,17.184466 L18.3138987,17.197411 C18.2944641,17.223301 18.2750294,17.2427184 18.262073,17.2621359 C18.1843345,17.3527508 18.1130742,17.4304207 18.0029446,17.4886731 C17.7697291,17.605178 17.581861,17.8122977 17.3810365,17.97411 C17.3680801,17.987055 17.3421673,17.9935275 17.3227326,17.9935275 C17.1219081,18.1877023 16.9210836,18.381877 16.7137809,18.5695793 C16.7008245,18.5825243 16.6425206,18.5889968 16.5971731,18.5825243 C16.5971731,18.5825243 16.6036514,18.5825243 16.6036514,18.5760518 C16.6101296,18.5631068 16.6166078,18.5501618 16.623086,18.5372168 C16.655477,18.4854369 16.6878681,18.433657 16.7202591,18.381877 C16.7591284,18.3236246 16.7915194,18.2653722 16.8303887,18.2071197 C16.8822144,18.1294498 16.93404,18.0517799 16.9923439,17.9805825 C17.0053004,17.961165 17.0053004,17.9417476 16.9923439,17.9288026 C16.9793875,17.9158576 16.9599529,17.9093851 16.9405183,17.9093851 C17.1283863,17.7281553 17.3486455,17.5728155 17.5753828,17.4368932 L17.5753828,17.4304207 C17.54947,17.4368932 17.5106007,17.4174757 17.5300353,17.3915858 C17.5559482,17.3592233 17.5753828,17.3203883 17.5948174,17.2880259 C17.6012956,17.2750809 17.6012956,17.2686084 17.6077739,17.2556634 C17.6012956,17.2427184 17.5883392,17.236246 17.581861,17.223301 C17.5235571,17.2621359 17.458775,17.3009709 17.4069494,17.3462783 C17.3162544,17.4239482 17.2449941,17.592233 17.1089517,17.592233 C17.1024735,17.592233 17.0700824,17.592233 17.0506478,17.5857605 C17.0312132,17.5857605 17.0182568,17.579288 17.0117786,17.5728155 C17.0117786,17.566343 17.0117786,17.566343 17.0182568,17.566343 C17.0182568,17.566343 17.024735,17.5598706 17.024735,17.5533981 C17.024735,17.5533981 17.024735,17.5469256 17.0312132,17.5469256 C17.0376914,17.5339806 17.0441696,17.5275081 17.0506478,17.5145631 C17.057126,17.5016181 17.0636042,17.4951456 17.0700824,17.4822006 C17.0765607,17.4757282 17.0765607,17.4627832 17.0830389,17.4563107 C17.0895171,17.4433657 17.1024735,17.4239482 17.1089517,17.4045307 C17.1154299,17.3915858 17.1219081,17.3851133 17.1283863,17.3721683 C17.147821,17.3462783 17.1607774,17.3139159 17.180212,17.2880259 C17.1866902,17.2750809 17.1931684,17.2621359 17.2061249,17.2491909 C17.2190813,17.223301 17.2320377,17.2038835 17.2449941,17.1779935 C17.2644287,17.1456311 17.2449941,17.1197411 17.2190813,17.1132686 C17.2903416,17.0226537 17.3745583,16.9449838 17.4782097,16.8867314 L17.4652532,16.8867314 C17.6077739,16.815534 17.7567727,16.7249191 17.8992933,16.6472492 C17.9187279,16.6278317 17.9381625,16.6084142 17.9640754,16.5954693 C17.7502945,16.6666667 17.5559482,16.763754 17.3680801,16.8932039 C17.3680801,16.8932039 17.3162544,16.9126214 17.303298,16.9255663 C17.303298,16.9255663 17.2644287,16.9385113 17.2126031,16.8932039 C17.2061249,16.8867314 17.2061249,16.8802589 17.2061249,16.8673139 C17.2449941,16.789644 17.3551237,16.7572816 17.4328622,16.6796117 C17.4717314,16.6796117 17.5041225,16.6796117 17.5041225,16.7184466 C18.7090695,15.7799353 20.3674912,16.0064725 21.7603062,15.5145631 C21.8704358,15.4368932 21.9870436,15.3656958 22.0971731,15.2880259 C22.2850412,15.210356 22.43404,15.0226537 22.6607774,14.9126214 C22.958775,14.6860841 23.1855124,14.4271845 23.3021201,14.0453074 C23.3021201,14.0064725 23.2632509,13.9676375 23.2632509,13.9676375 C22.7709069,14.4919094 22.2073027,14.9061489 21.6048292,15.210356 C20.8144876,15.6245955 19.9464075,15.5533981 19.1236749,15.6634304 C19.1625442,15.5857605 19.2402827,15.5857605 19.311543,15.5857605 C19.311543,15.4692557 19.3828033,15.4368932 19.4605418,15.3592233 L19.5706714,15.3592233 C19.6095406,15.3592233 19.6095406,15.2815534 19.6484099,15.2815534 C19.7261484,15.2815534 19.836278,15.2427184 19.7974087,15.2427184 C19.6808009,15.0938511 19.4605418,15.3527508 19.2726737,15.2427184 C19.343934,15.1650485 19.311543,15.0550162 19.3828033,15.0161812 L19.5318021,15.0161812 C19.5318021,14.9385113 19.6095406,14.8673139 19.6095406,14.8673139 C20.1731449,14.5307443 20.7043581,14.2653722 21.2290931,13.9676375 C21.1189635,13.9676375 21.041225,14.0841424 20.9310954,14.0064725 C21.0088339,14.0064725 20.9310954,13.8964401 21.0088339,13.8964401 C21.4234393,13.7864078 21.7603062,13.5598706 22.1749117,13.4045307 C22.0259128,13.4045307 21.9093051,13.5210356 21.7603062,13.4045307 C21.8380448,13.3656958 21.8704358,13.2944984 21.9870436,13.2944984 L21.9870436,13.184466 C21.9870436,13.1456311 22.0259128,13.1456311 22.0647821,13.1456311 C22.0259128,13.1456311 21.9870436,13.1067961 21.9870436,13.1067961 C22.0259128,13.0291262 22.1360424,13.0679612 22.2137809,12.9967638 C22.1749117,12.9967638 22.1036514,12.9967638 22.1036514,12.9579288 C22.2137809,12.8090615 22.401649,12.7702265 22.5895171,12.7313916 C22.5506478,12.6537217 22.4405183,12.7313916 22.4405183,12.6537217 C22.4405183,12.6148867 22.4793875,12.6148867 22.5182568,12.6148867 L22.4405183,12.6148867 C22.3627797,12.5760518 22.401649,12.4983819 22.401649,12.4660194 C22.6283863,12.2006472 22.6283863,11.8640777 22.7385159,11.566343 C22.6996466,11.566343 22.6607774,11.566343 22.6607774,11.5275081 C22.2850412,11.9417476 21.6825677,12.0906149 21.1189635,12.2394822 L20.9310954,12.2394822 C20.7432273,12.3171521 20.4776207,12.3171521 20.2897527,12.2006472 C20.1407538,12.1229773 20.0630153,12.012945 19.9140165,11.9029126 C19.6095406,11.7152104 19.311543,11.566343 18.9746761,11.4498382 C18.0353357,11.1521036 17.057126,10.9967638 16.0789164,11.0355987 C16.4935218,10.8090615 16.9469965,10.789644 17.3939929,10.6601942 C18.0353357,10.4724919 18.6378092,10.2459547 19.311543,10.2847896 C19.2014134,10.2459547 19.0459364,10.2847896 18.9358068,10.2847896 C18.4110718,10.2459547 17.8798587,10.394822 17.3162544,10.5113269 C16.9405183,10.5889968 16.6036514,10.7378641 16.221437,10.8090615 C15.9946996,10.8867314 15.8845701,11.1067961 15.6189635,11.0744337 L15.6189635,10.9579288 C15.9946996,10.5048544 16.4481743,10.0582524 17.0506478,10.0194175 C17.7308598,9.90938511 18.3657244,10.0194175 19.0459364,10.0970874 C19.5318021,10.1359223 19.9852768,10.2459547 20.4776207,10.3624595 C20.6654888,10.3624595 20.7043581,10.6601942 20.8533569,10.6990291 C21.0800942,10.776699 21.3068316,10.6990291 21.5335689,10.8478964 C21.5335689,10.7702265 21.4946996,10.6990291 21.5335689,10.6213592 C21.6825677,10.4724919 21.8704358,10.6601942 22.0194346,10.5825243 C22.3239105,10.394822 21.753828,10.0582524 21.6048292,9.79288026 C21.6048292,9.75404531 21.6436985,9.71521036 21.6436985,9.71521036 C21.9416961,9.98058252 22.1684335,10.2783172 22.5441696,10.4660194 C22.7320377,10.5436893 23.1855124,10.6537217 23.1077739,10.4271845 C22.9199058,10.012945 22.5441696,9.6763754 22.2396938,9.30097087 L22.2396938,9.15210356 C22.1619552,9.15210356 22.1619552,9.11326861 22.1295642,9.07443366 L22.1295642,8.92556634 C21.9805654,8.84789644 22.0129564,8.69902913 21.9416961,8.58899676 C21.8250883,8.4012945 21.9028269,8.13592233 21.8250883,7.90938511 C21.7473498,7.6828479 21.7149588,7.49514563 21.6760895,7.26860841 C21.5594817,6.62783172 21.4104829,6.06472492 21.3392226,5.46278317 C21.2614841,4.75080906 21.753828,4.18122977 22.0906949,3.54692557 C22.3563015,3.09385113 22.6542992,2.64724919 23.1466431,2.34304207 C23.2567727,1.88996764 23.5612485,1.51456311 23.8592462,1.13915858 C24.1572438,0.770226537 24.6625442,0.550161812 25.0188457,0.388349515 C25.5435807,0.155339806 26.01649,0.00647249191 26.0229682,0.00647249191 L0,0.00647249191 L0,19.9352751 L18.4628975,19.9352751 C19.1819788,19.4174757 19.8945819,19.1779935 20.8987044,18.6796117 C21.3651355,18.4466019 22.4469965,17.9482201 22.8162544,17.5857605 M17.024735,14.8932039 C16.9469965,14.8932039 16.7979976,14.9320388 16.8368669,14.8543689 C16.8757362,14.6666667 17.1348645,14.6666667 17.2903416,14.5889968 C17.3680801,14.5501618 17.4782097,14.4789644 17.5559482,14.5113269 C17.6336867,14.6213592 17.7438163,14.5889968 17.8215548,14.6601942 C17.5883392,14.8932039 17.2903416,14.776699 17.024735,14.8932039 M11.2656066,14.0647249 C11.2656066,14.0647249 11.2267373,14.02589 11.2267373,13.987055 C11.7190813,13.3462783 12.0948174,12.7443366 12.4316843,12.0711974 C12.9240283,11.8058252 13.3256773,11.4239482 13.7143698,11.0161812 C14.3557126,10.3365696 15.0294464,9.73462783 15.819788,9.3592233 C16.1177856,9.24271845 16.5,9.2815534 16.7979976,9.39805825 C16.6878681,9.54692557 16.5,9.50809061 16.344523,9.62459547 C16.3056537,9.62459547 16.2667845,9.62459547 16.2279152,9.58576052 C16.2667845,9.54692557 16.2667845,9.50809061 16.2667845,9.46925566 C15.8910483,9.88349515 15.3663133,10.0711974 15.0618375,10.5631068 C14.8351001,10.9385113 14.6861013,11.4304207 14.2002356,11.5404531 C14.0512367,11.579288 14.2391048,11.4304207 14.1613663,11.4627832 C12.9952886,12.1812298 12.1725559,13.0485437 11.2656066,14.0647249 M14.3881037,11.579288 C14.3492344,11.6569579 14.3103651,11.6634304 14.2779741,11.7281553 C14.2391048,11.8058252 14.2002356,11.8381877 14.1289753,11.8770227 C14.090106,11.8770227 14.0512367,11.8770227 14.0512367,11.8381877 C14.090106,11.6893204 14.2002356,11.5404531 14.3492344,11.5016181 C14.3881037,11.5080906 14.3881037,11.5469256 14.3881037,11.579288 M16.1372203,17.2168285 C16.1177856,17.2556634 16.0789164,17.2944984 16.0465253,17.3268608 C16.0918728,17.3333333 16.1242638,17.3592233 16.098351,17.3851133 C16.0141343,17.4627832 15.9299176,17.5469256 15.8133098,17.5857605 C15.8068316,17.5857605 15.7809187,17.592233 15.7550059,17.592233 C15.7096584,17.6375405 15.664311,17.6828479 15.6124853,17.7216828 C15.5671378,17.7605178 15.3598351,17.7346278 15.4246172,17.6763754 C15.5217903,17.592233 15.6124853,17.5016181 15.7031802,17.4110032 C15.7550059,17.3592233 15.8133098,17.3139159 15.8586572,17.2621359 C15.8845701,17.2297735 15.9040047,17.2038835 15.9363958,17.1779935 C15.9687868,17.1585761 16.1696113,17.1391586 16.1372203,17.2168285 M15.4634865,16.9061489 C15.4570082,16.9061489 15.4570082,16.9061489 15.4570082,16.9126214 C15.3144876,17.0097087 15.1784452,17.1132686 15.0294464,17.197411 C14.8674912,17.2880259 14.6990577,17.3592233 14.5306243,17.4433657 C14.5306243,17.4433657 14.5306243,17.4368932 14.5241461,17.4368932 C14.5111896,17.4174757 14.4852768,17.4110032 14.459364,17.4239482 C14.3168433,17.5016181 14.1937574,17.605178 14.0836278,17.7152104 C14.0641932,17.7281553 14.0447585,17.7475728 14.0318021,17.7669903 L14.0318021,17.7669903 C14.0318021,17.7669903 14.0318021,17.7669903 14.0318021,17.7669903 L13.9799764,17.8187702 C13.9799764,17.8187702 13.9734982,17.8252427 13.9734982,17.8252427 C13.9734982,17.8252427 13.9734982,17.8252427 13.9734982,17.8317152 C13.9475854,17.8576052 13.9216726,17.8834951 13.8892815,17.9223301 C13.8698469,17.9417476 13.8633687,17.961165 13.8374558,17.97411 C13.811543,17.987055 13.7467609,17.987055 13.7532391,17.9482201 C13.7532391,17.9482201 13.7532391,17.9417476 13.7532391,17.9417476 C13.7338045,17.9546926 13.7078916,17.9676375 13.688457,17.97411 C13.6690224,17.987055 13.6495878,17.9935275 13.6301531,18.0064725 C13.6236749,18 13.6107185,18 13.6042403,18 C13.5977621,18 13.5848057,18 13.5783274,18.0064725 C13.53298,18.0453074 13.4876325,18.0776699 13.442285,18.1229773 C13.3645465,18.1941748 13.2932862,18.2718447 13.2220259,18.3559871 C13.2220259,18.3559871 13.2220259,18.3624595 13.2155477,18.3624595 C13.2155477,18.368932 13.2090695,18.368932 13.2090695,18.3754045 C13.2025913,18.381877 13.2025913,18.381877 13.1961131,18.3883495 C13.1896349,18.394822 13.1896349,18.4012945 13.1831567,18.4012945 C13.1831567,18.4012945 13.1831567,18.4012945 13.1766784,18.407767 C13.1702002,18.420712 13.163722,18.433657 13.1507656,18.4466019 C13.1507656,18.4466019 13.1507656,18.4466019 13.1507656,18.4466019 C13.1442874,18.4530744 13.131331,18.4595469 13.1183746,18.4595469 C13.1118963,18.4530744 13.1054181,18.4466019 13.1054181,18.4401294 C13.0989399,18.433657 13.0989399,18.4271845 13.0924617,18.420712 C13.0795053,18.4012945 13.0730271,18.381877 13.0600707,18.3624595 C13.0600707,18.3624595 13.0600707,18.3624595 13.0600707,18.3559871 C13.0600707,18.3495146 13.0535925,18.3430421 13.0535925,18.3365696 C13.0924617,18.2912621 13.131331,18.2459547 13.1702002,18.2006472 C13.1702002,18.2006472 13.1766784,18.1941748 13.1766784,18.1941748 C13.1896349,18.1812298 13.2025913,18.1618123 13.2155477,18.1488673 C13.2349823,18.1229773 13.2608952,18.0970874 13.2803298,18.0711974 C13.286808,18.0582524 13.2932862,18.0517799 13.2997644,18.038835 C13.3386337,17.987055 13.3775029,17.9352751 13.4163722,17.8770227 C13.4163722,17.8770227 13.4163722,17.8770227 13.4163722,17.8705502 C13.4228504,17.8640777 13.4293286,17.8576052 13.4293286,17.8446602 C13.4487633,17.8187702 13.4681979,17.7928803 13.4811543,17.7669903 C13.4941107,17.7411003 13.5070671,17.7152104 13.5200236,17.6893204 L13.5200236,17.6828479 L13.5265018,17.6763754 C13.5265018,17.6699029 13.53298,17.6699029 13.53298,17.6634304 C13.5459364,17.631068 13.5588928,17.605178 13.5718492,17.5728155 C13.5718492,17.5728155 13.5718492,17.566343 13.5718492,17.566343 L13.5783274,17.5404531 C13.5848057,17.5275081 13.5848057,17.5145631 13.5912839,17.5016181 C13.5912839,17.5016181 13.5912839,17.4951456 13.5912839,17.4951456 C13.5977621,17.4757282 13.5977621,17.4563107 13.6042403,17.4368932 C13.6042403,17.4304207 13.6042403,17.4174757 13.5977621,17.4110032 C13.6366313,17.3398058 13.688457,17.2750809 13.7467609,17.210356 C13.7402827,17.210356 13.7338045,17.2168285 13.7273263,17.2168285 C13.6755006,17.2491909 13.6366313,17.3009709 13.5848057,17.3398058 C13.5459364,17.3721683 13.4681979,17.3203883 13.5200236,17.2815534 C13.5524146,17.2556634 13.5783274,17.2297735 13.6042403,17.2038835 C13.6042403,17.2038835 13.6042403,17.197411 13.6107185,17.197411 C13.6755006,17.1391586 13.7338045,17.0614887 13.8050648,17.0097087 C13.8504122,16.9773463 13.8828033,16.9514563 13.9216726,16.9190939 C13.9281508,16.9126214 13.934629,16.9061489 13.9411072,16.9061489 C13.96702,16.8737864 13.9929329,16.8414239 14.0253239,16.8090615 C14.0253239,16.8090615 14.0318021,16.8090615 14.0318021,16.802589 C14.3945819,16.4530744 14.9970554,16.4724919 15.4764429,16.2524272 C15.664311,16.1747573 15.8910483,16.2912621 16.0789164,16.2524272 C16.1890459,16.2524272 16.3056537,16.2524272 16.4157833,16.3300971 C16.0853946,16.5048544 15.7744405,16.7119741 15.4634865,16.9061489 M16.2343934,14.2912621 C16.1955241,14.2524272 16.3510012,14.2912621 16.3833922,14.2135922 L16.0853946,14.2135922 C16.0465253,14.2135922 16.0465253,14.1747573 16.0465253,14.1359223 C15.8586572,14.1747573 15.6319199,14.2459547 15.4440518,14.2847896 C15.1784452,14.3624595 14.9517079,14.5501618 14.6537102,14.6213592 C14.2391048,14.7702265 13.9022379,15.1132686 13.4487633,15.2621359 C13.409894,15.2621359 13.409894,15.223301 13.409894,15.184466 C13.4487633,15.0744337 13.5977621,15.0355987 13.6755006,14.9190939 C13.6755006,14.8802589 13.6755006,14.8414239 13.6366313,14.8414239 C13.934629,14.4271845 14.3492344,14.2006472 14.7314488,13.8640777 L14.7314488,13.7475728 C14.8415783,13.5987055 15.0294464,13.5210356 15.1071849,13.3333333 C15.1460542,13.223301 15.295053,13.0679612 15.4829211,12.9967638 C15.4440518,12.9579288 15.3727915,12.9579288 15.3727915,12.8867314 C15.2237927,12.8867314 15.0683157,12.9644013 14.9193168,12.8478964 C14.9905771,12.776699 15.0683157,12.7378641 15.1525324,12.7119741 C15.1201413,12.7055016 15.0942285,12.6925566 15.0683157,12.6601942 C15.0294464,12.5825243 15.139576,12.4983819 15.2561837,12.4724919 C15.4051826,12.433657 15.5930506,12.433657 15.7096584,12.3236246 C15.4440518,12.2847896 15.1460542,12.4012945 14.8804476,12.2459547 C15.0683157,11.7605178 15.3727915,11.3462783 15.819788,11.1197411 C15.8586572,11.1197411 15.9363958,11.1197411 15.9363958,11.1585761 C15.9363958,11.3462783 15.819788,11.4951456 15.6319199,11.5339806 C15.9363958,11.6116505 16.2343934,11.6116505 16.532391,11.7605178 C16.4935218,11.8381877 16.4222615,11.7993528 16.3833922,11.7993528 C16.5712603,11.9093851 16.7979976,11.8381877 16.9858657,11.987055 C16.869258,12.0970874 16.7591284,11.987055 16.6489988,11.987055 C17.8150766,12.3236246 19.0588928,12.5889968 20.0371025,13.3398058 C19.2078916,13.7540453 18.3398115,13.9417476 17.4393404,14.1294498 C17.3292108,14.1294498 17.2514723,14.1294498 17.1413428,14.0906149 C17.1413428,14.1294498 17.1413428,14.2006472 17.1024735,14.2006472 C16.9534747,14.2006472 16.8368669,14.2006472 16.7267373,14.2783172 C16.5712603,14.3624595 16.344523,14.4012945 16.2343934,14.2912621" id="Shape" fill="#000091"></path>
                    <path d="M54.9481743,0.0323624595 L33.5182568,0.0323624595 C33.5182568,0.0323624595 33.557126,0.0388349515 33.7190813,0.122977346 C33.8939929,0.213592233 34.1207303,0.336569579 34.2567727,0.40776699 C34.5353357,0.550161812 34.8009423,0.731391586 34.9758539,1.00970874 C35.0535925,1.1197411 35.163722,1.34627832 35.0924617,1.49514563 C35.0147232,1.6828479 34.9758539,1.98705502 34.7879859,2.05825243 C34.5612485,2.17475728 34.2632509,2.17475728 33.9976443,2.13592233 C33.8486455,2.13592233 33.6996466,2.09708738 33.5441696,2.05825243 C34.1077739,2.28478964 34.638987,2.55016181 35.0147232,3.07443366 C35.0535925,3.15210356 35.2025913,3.18446602 35.3515901,3.18446602 C35.3904594,3.18446602 35.3904594,3.26213592 35.3904594,3.29449838 C35.3127208,3.37216828 35.2414605,3.41100324 35.2803298,3.5210356 L35.3904594,3.5210356 C35.5783274,3.4433657 35.5394582,3.06796117 35.8050648,3.18446602 C35.9929329,3.29449838 36.0706714,3.55987055 35.9540636,3.74757282 C35.8050648,3.89644013 35.656066,4.01294498 35.5005889,4.12297735 C35.4617197,4.20064725 35.4617197,4.31067961 35.5005889,4.38834951 C35.6107185,4.53721683 35.6495878,4.68608414 35.688457,4.84142395 C35.8050648,5.10679612 35.8374558,5.40453074 35.9540636,5.66990291 C36.1030624,6.23300971 36.2520612,6.7961165 36.2196702,7.36569579 C36.2196702,7.66343042 36.0706714,7.92880259 36.1808009,8.23300971 C36.2585395,8.53074434 36.4464075,8.75728155 36.5954064,9.02265372 C36.7444052,9.24919094 36.893404,9.39805825 37.0100118,9.62459547 C37.2367491,10 37.6513545,10.3754045 37.4634865,10.828479 C37.3533569,11.0938511 36.9387515,11.0550162 36.6731449,11.2038835 C36.4464075,11.3915858 36.6342756,11.6957929 36.7508834,11.8834951 C36.9387515,12.2200647 36.5241461,12.4466019 36.2585395,12.5631068 C36.336278,12.6796117 36.4852768,12.6407767 36.5241461,12.7119741 C36.5630153,12.8996764 36.7508834,13.0097087 36.6342756,13.2038835 C36.4852768,13.4304207 36.0318021,13.5404531 36.2585395,13.8834951 C36.4075383,14.1488673 36.3103651,14.4401294 36.2196702,14.7119741 C36.1095406,15.0485437 35.8050648,15.197411 35.5394582,15.2750809 C35.3127208,15.3527508 35.0471143,15.3527508 34.8268551,15.3139159 C34.7491166,15.2750809 34.6778563,15.236246 34.6001178,15.236246 C33.958775,15.1585761 33.3174323,14.9773463 32.6825677,14.9773463 C32.4946996,15.0161812 32.3068316,15.0485437 32.1578327,15.1262136 C31.9893993,15.2491909 31.8339223,15.3851133 31.7043581,15.5275081 C31.7043581,15.5275081 31.7043581,15.5275081 31.6978799,15.5339806 C31.671967,15.566343 31.639576,15.592233 31.6136631,15.6245955 C31.6007067,15.6440129 31.5812721,15.6634304 31.5683157,15.6828479 C31.5553592,15.6957929 31.548881,15.7087379 31.5359246,15.7216828 C31.4257951,15.8576052 31.3286219,16.0064725 31.237927,16.1553398 C31.2314488,16.1682848 31.2249706,16.1747573 31.2184923,16.1812298 C31.2120141,16.2006472 31.1990577,16.2135922 31.1861013,16.2330097 C31.0630153,16.4595469 30.9723204,16.6925566 30.9010601,16.9255663 C30.6419317,17.7864078 30.7585395,18.5242718 30.9399293,18.7055016 C30.991755,18.7572816 32.1837456,19.1262136 33.0129564,19.4951456 C33.401649,19.6699029 33.6737338,19.7993528 33.9004711,19.9417476 L54.9416961,19.9417476 L54.9416961,0.0323624595 L54.9481743,0.0323624595 Z" id="Path" fill="#E1000F"></path>
                    <path d="M34.7944641,7.28802589 C34.9434629,7.32686084 35.1702002,7.32686084 35.1702002,7.40453074 C35.0924617,7.70226537 34.6454653,7.77993528 34.4187279,8.08414239 L34.3021201,8.08414239 C34.1919906,8.1618123 34.2243816,8.34951456 34.1142521,8.34951456 C34.0041225,8.31067961 33.8875147,8.34951456 33.7773852,8.38834951 C33.926384,8.53721683 34.1142521,8.65372168 34.3409894,8.61488673 C34.3798587,8.61488673 34.451119,8.69255663 34.451119,8.76375405 C34.451119,8.76375405 34.4899882,8.76375405 34.5288575,8.72491909 C34.5677267,8.72491909 34.606596,8.72491909 34.606596,8.76375405 L34.606596,8.91262136 C34.4964664,9.06148867 34.3021201,8.99029126 34.1531213,9.02265372 C34.4575972,9.10032362 34.7555948,9.10032362 35.0212014,9.02265372 C35.2479388,8.94498382 35.0212014,8.56957929 35.1702002,8.38187702 C35.0924617,8.38187702 35.1702002,8.26537217 35.0924617,8.26537217 C35.1702002,8.18770227 35.2414605,8.0776699 35.3191991,8.03883495 C35.3969376,8.03883495 35.5070671,8 35.5459364,7.9223301 C35.5459364,7.84466019 35.3969376,7.81229773 35.4293286,7.73462783 C35.656066,7.58576052 35.843934,7.3592233 35.7661955,7.13268608 C35.7273263,7.01618123 35.4293286,7.01618123 35.2414605,6.94498382 C35.0535925,6.87378641 34.8268551,6.94498382 34.6001178,6.98381877 C34.4122497,6.98381877 34.2243816,7.10032362 34.0365135,7.13268608 C33.7709069,7.21035599 33.5441696,7.3592233 33.3239105,7.50809061 C33.5895171,7.39805825 33.8486455,7.3592233 34.1531213,7.2815534 C34.3798587,7.28802589 34.5677267,7.23624595 34.7944641,7.28802589" id="Path" fill="#808080"></path>
                </g>
            </g>
        </g>
    </g>
</svg>
